<svg width="25" height="25" viewBox="0 0 25 25" fill="none" xmlns="http://www.w3.org/2000/svg">
<g clip-path="url(#clip0_5428_20371)">
<path d="M10.3128 4.41653C11.0298 4.2487 11.7639 4.1648 12.5003 4.16653C19.792 4.16653 23.9587 12.4999 23.9587 12.4999C23.3263 13.6828 22.5723 14.7965 21.7087 15.8228M14.7087 14.7082C14.4226 15.0152 14.0776 15.2615 13.6942 15.4323C13.3109 15.6031 12.8971 15.6949 12.4775 15.7023C12.0579 15.7097 11.6411 15.6325 11.252 15.4754C10.8629 15.3182 10.5094 15.0843 10.2127 14.7875C9.91592 14.4908 9.68198 14.1373 9.52481 13.7482C9.36764 13.3591 9.29046 12.9423 9.29786 12.5227C9.30526 12.1031 9.3971 11.6893 9.5679 11.306C9.7387 10.9226 9.98496 10.5776 10.292 10.2915M18.6878 18.6874C16.9072 20.0447 14.739 20.7966 12.5003 20.8332C5.20866 20.8332 1.04199 12.4999 1.04199 12.4999C2.33771 10.0852 4.13484 7.9755 6.31283 6.31236L18.6878 18.6874Z" stroke="#424242" stroke-linecap="round" stroke-linejoin="round"/>
<path d="M1.04199 1.0415L23.9587 23.9582" stroke="#424242" stroke-linecap="round" stroke-linejoin="round"/>
</g>
<defs>
<clipPath id="clip0_5428_20371">
<rect width="25" height="25" fill="white"/>
</clipPath>
</defs>
</svg>
