<svg width="35" height="35" viewBox="0 0 35 35" fill="none" xmlns="http://www.w3.org/2000/svg">
<path d="M33.2989 17.8723C33.2989 16.786 33.2027 15.7547 33.0377 14.751H17.5V20.9523H26.3964C25.9976 22.9874 24.8289 24.7061 23.0964 25.8749V30H28.404C31.5115 27.1261 33.2989 22.891 33.2989 17.8723Z" fill="#4285F4"/>
<path d="M17.496 33.9999C21.951 33.9999 25.6773 32.5149 28.3998 29.9986L23.0923 25.8735C21.6073 26.8635 19.7235 27.4686 17.496 27.4686C13.1922 27.4686 9.54837 24.5672 8.2421 20.6484H2.76953V24.8972C5.47832 30.2873 11.0472 33.9999 17.496 33.9999Z" fill="#34A853"/>
<path d="M8.24634 20.6484C7.90259 19.6584 7.72383 18.5997 7.72383 17.4996C7.72383 16.3996 7.91633 15.3409 8.24634 14.3509V10.1021H2.77377C1.64626 12.3296 1 14.8321 1 17.4996C1 20.1672 1.64626 22.6697 2.77377 24.8972L8.24634 20.6484Z" fill="#FBBC05"/>
<path d="M17.496 7.53133C19.9298 7.53133 22.1023 8.37009 23.821 10.0064L28.5236 5.30381C25.6773 2.63627 21.951 1 17.496 1C11.0472 1 5.47832 4.71255 2.76953 10.1026L8.2421 14.3514C9.54837 10.4326 13.1922 7.53133 17.496 7.53133Z" fill="#EA4335"/>
</svg>
