<svg width="18" height="18" viewBox="0 0 18 18" fill="none" xmlns="http://www.w3.org/2000/svg">
<path d="M16.5001 12.6898V14.9398C16.5009 15.1487 16.4581 15.3555 16.3745 15.5468C16.2908 15.7382 16.168 15.91 16.0141 16.0512C15.8602 16.1924 15.6785 16.2999 15.4806 16.3669C15.2828 16.4338 15.0731 16.4586 14.8651 16.4398C12.5572 16.1891 10.3403 15.4004 8.39257 14.1373C6.58044 12.9858 5.04407 11.4495 3.89257 9.63733C2.62506 7.68073 1.83625 5.45308 1.59007 3.13483C1.57133 2.92743 1.59598 2.7184 1.66245 2.52105C1.72892 2.3237 1.83575 2.14235 1.97615 1.98854C2.11654 1.83474 2.28743 1.71186 2.47792 1.62772C2.6684 1.54358 2.87433 1.50002 3.08257 1.49983H5.33257C5.69655 1.49625 6.04942 1.62514 6.32539 1.86248C6.60137 2.09982 6.78163 2.42941 6.83257 2.78983C6.92754 3.50988 7.10366 4.21687 7.35757 4.89733C7.45848 5.16577 7.48032 5.45752 7.4205 5.73799C7.36069 6.01846 7.22172 6.27591 7.02007 6.47983L6.06757 7.43233C7.13524 9.30999 8.68991 10.8647 10.5676 11.9323L11.5201 10.9798C11.724 10.7782 11.9814 10.6392 12.2619 10.5794C12.5424 10.5196 12.8341 10.5414 13.1026 10.6423C13.783 10.8962 14.49 11.0724 15.2101 11.1673C15.5744 11.2187 15.9071 11.4022 16.145 11.683C16.3828 11.9637 16.5092 12.322 16.5001 12.6898Z" stroke="#19191D" stroke-linecap="round" stroke-linejoin="round"/>
</svg>
