<svg width="76" height="76" viewBox="0 0 76 76" fill="none" xmlns="http://www.w3.org/2000/svg">
<path d="M37.9985 75.6519C58.6824 75.6519 75.4501 58.8842 75.4501 38.2003C75.4501 17.5163 58.6824 0.748657 37.9985 0.748657C17.3145 0.748657 0.546875 17.5163 0.546875 38.2003C0.546875 58.8842 17.3145 75.6519 37.9985 75.6519Z" fill="url(#paint0_linear_6199_37464)"/>
<path d="M13.6807 39.7956C18.0797 37.3917 22.9902 35.3852 27.5784 33.3686C35.4717 30.0655 43.3964 26.8196 51.4011 23.7977C52.9585 23.2828 55.7569 22.7794 56.0312 25.0691C55.8809 28.3103 55.2629 31.5326 54.839 34.7548C53.7629 41.8408 52.5192 48.9025 51.3064 55.9652C50.8885 58.3178 47.918 59.5356 46.0174 58.03C41.4496 54.9691 36.8468 51.9377 32.3374 48.8057C30.8602 47.3166 32.23 45.1781 33.5492 44.1147C37.3113 40.4364 41.3011 37.3112 44.8667 33.4428C45.8284 31.1386 42.9867 33.0805 42.0493 33.6755C36.8989 37.1968 31.8746 40.933 26.4445 44.0276C23.6708 45.5424 20.438 44.2479 17.6655 43.4027C15.1798 42.3816 11.5371 41.3528 13.6804 39.7959L13.6807 39.7956Z" fill="white"/>
<defs>
<linearGradient id="paint0_linear_6199_37464" x1="27.5014" y1="-33.9261" x2="-23.6877" y2="48.8368" gradientUnits="userSpaceOnUse">
<stop stop-color="#34B0DF"/>
<stop offset="1" stop-color="#1E88D3"/>
</linearGradient>
</defs>
</svg>
