<svg width="20" height="20" viewBox="0 0 20 20" fill="none" xmlns="http://www.w3.org/2000/svg">
<path fill-rule="evenodd" clip-rule="evenodd" d="M14.3663 16.6498C14.5899 16.8048 14.8781 16.8436 15.135 16.7484C15.3919 16.6525 15.5808 16.4376 15.6378 16.1772C16.2412 13.4001 17.7051 6.3709 18.2544 3.84469C18.296 3.65429 18.2266 3.45641 18.0738 3.32925C17.921 3.20209 17.7092 3.16537 17.5204 3.23405C14.6086 4.28941 5.64146 7.58402 1.97627 8.91206C1.74363 8.99638 1.59225 9.21534 1.59989 9.45538C1.60822 9.6961 1.77349 9.90486 2.01168 9.9749C3.65539 10.4563 5.81298 11.1261 5.81298 11.1261C5.81298 11.1261 6.82129 14.1079 7.34698 15.6243C7.41295 15.8147 7.56503 15.9643 7.76572 16.016C7.96571 16.067 8.1796 16.0133 8.3289 15.8753C9.17332 15.0946 10.4788 13.8876 10.4788 13.8876C10.4788 13.8876 12.9594 15.6685 14.3663 16.6498ZM6.7206 10.7494L7.88655 14.5153L8.14557 12.1305C8.14557 12.1305 12.6503 8.15182 15.2183 5.88401C15.2933 5.81737 15.3037 5.70585 15.2412 5.62765C15.1794 5.54945 15.0656 5.53109 14.9801 5.58413C12.0038 7.4453 6.7206 10.7494 6.7206 10.7494Z" fill="#2BA2DB"/>
</svg>
