<svg width="18" height="18" viewBox="0 0 18 18" fill="none" xmlns="http://www.w3.org/2000/svg">
<path d="M2.16016 15.12L3.11362 11.792C2.52527 10.8179 2.21611 9.71355 2.21667 8.58117C2.21837 5.04093 5.23363 2.16003 8.93842 2.16003C10.7363 2.16057 12.4239 2.82963 13.6933 4.04355C14.9622 5.25747 15.6607 6.87099 15.6602 8.58711C15.6585 12.1279 12.6432 15.0088 8.93842 15.0088C7.8137 15.0083 6.70537 14.7388 5.72365 14.2269L2.16016 15.12ZM5.88868 13.0643C6.83593 13.6016 7.74022 13.9234 8.93615 13.9239C12.0153 13.9239 14.5236 11.5296 14.5253 8.58603C14.5264 5.63655 12.03 3.24543 8.94068 3.24435C5.85929 3.24435 3.3527 5.63871 3.35157 8.58171C3.351 9.78321 3.7195 10.6829 4.33838 11.6241L3.77376 13.594L5.88868 13.0643ZM12.3244 10.1137C12.2826 10.0467 12.1707 10.0068 12.0023 9.92631C11.8344 9.84585 11.0087 9.45759 10.8544 9.40413C10.7007 9.35067 10.5888 9.32367 10.4763 9.48459C10.3644 9.64497 10.0422 10.0068 9.94444 10.1137C9.84667 10.2206 9.74832 10.2341 9.58046 10.1537C9.4126 10.0732 8.87116 9.90417 8.22967 9.35715C7.73062 8.93163 7.3932 8.40621 7.29542 8.24529C7.19765 8.08491 7.28525 7.99797 7.3689 7.91805C7.44463 7.84623 7.53676 7.73067 7.62097 7.63671C7.70631 7.54383 7.73401 7.47687 7.79053 7.36941C7.84648 7.26249 7.81878 7.16853 7.7764 7.08807C7.73401 7.00815 7.39829 6.21813 7.25869 5.89683C7.12191 5.58417 6.98344 5.62629 6.88058 5.62143L6.55842 5.61603C6.44652 5.61603 6.26453 5.65599 6.1108 5.81691C5.95707 5.97783 5.523 6.36555 5.523 7.15557C5.523 7.94559 6.12493 8.70861 6.20857 8.81553C6.29279 8.92245 7.39263 10.5435 9.07745 11.2385C9.47817 11.4038 9.79128 11.5026 10.0349 11.5766C10.4373 11.6986 10.8035 11.6813 11.0929 11.6403C11.4156 11.5944 12.0865 11.252 12.2267 10.8773C12.3668 10.502 12.3668 10.1807 12.3244 10.1137Z" fill="#25D366"/>
</svg>
