<svg width="35" height="35" viewBox="0 0 35 35" fill="none" xmlns="http://www.w3.org/2000/svg">
<g clip-path="url(#clip0_5189_20513)">
<path d="M34.0282 17.5C34.0282 14.2311 33.0589 11.0356 31.2428 8.31761C29.4267 5.59963 26.8454 3.48123 23.8253 2.23028C20.8053 0.979329 17.4821 0.652024 14.276 1.28975C11.07 1.92748 8.12499 3.5016 5.81354 5.81305C3.50209 8.1245 1.92797 11.0695 1.29024 14.2755C0.652512 17.4816 0.979817 20.8048 2.23077 23.8249C3.48171 26.8449 5.60012 29.4262 8.3181 31.2423C11.0361 33.0584 14.2316 34.0277 17.5004 34.0277C21.8839 34.0277 26.0878 32.2864 29.1873 29.1869C32.2869 26.0873 34.0282 21.8834 34.0282 17.5Z" fill="#FC3F1D"/>
<path d="M19.5724 10.2958H18.0557C15.2655 10.2958 13.7974 11.7055 13.7974 13.7861C13.7974 16.1486 14.8182 17.2569 16.8988 18.6472L18.6196 19.8041L13.671 27.2222H9.97656L14.4196 20.6111C11.8627 18.7736 10.4335 16.9944 10.4335 14C10.4335 10.218 13.0682 7.65137 18.0363 7.65137H22.9946V27.2222H19.5627V10.2958H19.5724Z" fill="white"/>
</g>
<defs>
<clipPath id="clip0_5189_20513">
<rect width="35" height="35" fill="white"/>
</clipPath>
</defs>
</svg>
