<svg width="71" height="71" viewBox="0 0 71 71" fill="none" xmlns="http://www.w3.org/2000/svg">
<g clip-path="url(#clip0_5906_37674)">
<path d="M46.9915 23.1001C46.9915 23.1001 46.7467 25.4816 45.2644 26.9659C44.1329 28.0974 42.9426 28.186 41.3841 28.4183C40.4762 28.5542 38.5217 28.7817 38.0292 28.3422C37.8008 28.1388 37.74 26.3182 37.7188 25.6802C37.6986 25.0132 37.5878 24.088 37.447 23.9453C37.3748 24.2403 37.2071 25.0566 37.1492 25.2571C37.0914 25.4575 36.8302 26.4059 36.783 26.5698C35.824 26.3976 34.8419 26.3976 33.8829 26.5698C33.8386 26.4088 33.5774 25.4633 33.5196 25.2629C33.4618 25.0624 33.294 24.246 33.2218 23.9511C33.082 24.0909 32.9702 25.0161 32.95 25.686C32.9297 26.3288 32.869 28.1446 32.6396 28.348C32.1471 28.7874 30.1935 28.56 29.2856 28.4241C27.7281 28.186 26.5379 28.0974 25.4102 26.9659C23.9231 25.4816 23.6754 23.1001 23.6754 23.1001H0.351562C0.351562 23.1001 7.05186 25.2918 9.75048 29.7108C11.3465 32.3236 11.1133 35.348 10.7066 36.9132C16.7361 36.5932 21.6958 36.5932 26.6631 38.383C33.3355 40.7857 34.6819 45.7261 35.3373 47.4041C35.9898 45.7261 37.3372 40.7857 44.0114 38.383C48.9788 36.5942 53.9385 36.5913 59.968 36.9132C59.5623 35.348 59.329 32.3236 60.9251 29.7108C63.6179 25.2918 70.323 23.1001 70.323 23.1001H46.9915Z" fill="black"/>
</g>
<defs>
<clipPath id="clip0_5906_37674">
<rect width="70" height="70" fill="white" transform="translate(0.335938 0.100098)"/>
</clipPath>
</defs>
</svg>
