<svg width="71" height="71" viewBox="0 0 71 71" fill="none" xmlns="http://www.w3.org/2000/svg">
<g clip-path="url(#clip0_5906_37671)">
<path d="M36.0078 70.1001C35.6599 70.1001 35.3135 70.0939 34.9675 70.0839L42.1205 50.4259H51.9642C53.692 50.4259 55.5887 49.0977 56.1796 47.4749L63.9396 26.1595C65.2093 22.6697 63.2104 19.8147 59.497 19.8147H45.8405L34.3826 51.301H34.3782L27.8821 69.1499C12.471 65.4863 1.00781 51.6324 1.00781 35.1001C1.00781 19.0447 11.8189 5.51538 26.5583 1.39218L19.8556 19.8147H19.8537L8.71105 50.4259L16.1286 50.4265L25.6045 24.4147H31.1794L21.7035 50.4265L29.1183 50.4278L37.949 26.1595C39.2194 22.6697 37.2203 19.8147 33.5103 19.8147H27.2751L34.4344 0.13688C34.9562 0.113709 35.4802 0.100098 36.0075 0.100098C55.3375 0.100098 71.0075 15.7701 71.0075 35.1001C71.0075 54.43 55.3375 70.1001 36.0075 70.1001H36.0078ZM57.1847 24.3959H51.6115L43.8066 45.8104H49.3801L57.1847 24.3959Z" fill="black"/>
</g>
<defs>
<clipPath id="clip0_5906_37671">
<rect width="70" height="70" fill="white" transform="translate(0.671875 0.100098)"/>
</clipPath>
</defs>
</svg>
