<svg width="71" height="71" viewBox="0 0 71 71" fill="none" xmlns="http://www.w3.org/2000/svg">
<g clip-path="url(#clip0_5906_37661)">
<path fill-rule="evenodd" clip-rule="evenodd" d="M0.335938 0.100098H70.3359V70.1001H0.335938V0.100098Z" fill="white"/>
<path fill-rule="evenodd" clip-rule="evenodd" d="M37.5095 44.1021H46.8324C48.2254 44.1021 49.3686 43.5305 50.2972 42.3869C51.1902 41.2797 51.6547 39.9581 51.6547 38.4583C51.6547 35.422 47.7613 33.2787 46.2604 33.2787H41.1526C40.7597 33.2787 40.4376 33.1 40.1881 32.8145C39.9379 32.4928 39.7952 32.1358 39.7952 31.7069C39.7952 31.2069 39.9379 30.7783 40.1881 30.421C40.4739 30.064 40.8309 29.8498 41.2598 29.8498H50.8329V26.0272H41.0807C39.3303 26.0272 37.9725 26.5632 37.008 27.5989C36.1513 28.5635 35.722 29.8494 35.722 31.3855C35.722 32.8857 36.1513 34.2076 37.008 35.2785C37.9725 36.4573 39.1161 37.0653 40.5091 37.0653H46.4035C46.7601 37.0653 47.0463 37.1724 47.2602 37.4575C47.5104 37.7433 47.6175 38.1006 47.6175 38.4939C47.6175 38.9584 47.4388 39.3869 47.153 39.7442C46.8316 40.0656 46.4743 40.2443 46.0105 40.2443H36.5802L36.4375 39.9941L32.9011 28.635L32.7224 28.2777C31.865 26.5273 30.4363 25.6702 28.4717 25.6702C27.4 25.6702 26.4355 25.9201 25.5781 26.4561C24.6851 26.9917 24.1135 27.7776 23.7921 28.7781L19.041 44.0661L23.3632 44.1024L27.721 30.4929C27.8282 30.064 28.0784 29.8498 28.3998 29.8498C28.5784 29.8498 28.7212 29.9209 28.8283 30.0284C28.9354 30.1712 29.007 30.3142 29.0426 30.4929L33.436 44.1024L37.5095 44.1021ZM5.36024 31.5998V44.0661H1.35938V30.2423C1.35938 28.4563 1.78826 27.206 2.71684 26.4561C3.43117 25.9201 4.50283 25.6343 6.00302 25.6343C7.2174 25.6343 8.25348 25.9916 9.18206 26.6704C10.1106 27.3491 10.7178 28.2777 11.0396 29.4209L13.647 38.601L14.0759 39.8514C14.1115 40.1012 14.2546 40.2799 14.3973 40.4222C14.576 40.5657 14.7543 40.6372 14.9689 40.5657C15.3263 40.5301 15.5049 40.3155 15.5049 39.9941V26.0632H19.6129V39.8154C19.6129 41.3516 19.2559 42.4951 18.5057 43.3166C17.7913 44.138 16.7197 44.5669 15.2907 44.5669C14.0403 44.5669 13.0043 44.3167 12.1828 43.8882C11.1827 43.3881 10.5395 42.6023 10.2537 41.5658L7.25335 31.0997L7.03909 30.421C6.96755 30.1712 6.82483 29.9925 6.64616 29.8138C6.46749 29.6707 6.25323 29.6351 6.03897 29.6707C5.82471 29.7067 5.68199 29.8138 5.53891 30.0281C5.42146 30.2219 5.35965 30.4443 5.36024 30.6709V31.5998ZM69.301 44.1021L64.6574 28.635L64.4787 28.2777C63.6213 26.5273 62.1927 25.6702 60.228 25.6702C59.1563 25.6702 58.1918 25.9201 57.3347 26.4561C56.441 26.9917 55.8702 27.7776 55.548 28.7781L50.7973 44.0661L55.1195 44.1024L59.4774 30.4929C59.5845 30.064 59.8347 29.8498 60.1561 29.8498C60.3348 29.8498 60.4775 29.9209 60.5846 30.0284C60.6925 30.1712 60.7633 30.3142 60.7996 30.4929L65.193 44.1024L69.301 44.1021Z" fill="black"/>
</g>
<defs>
<clipPath id="clip0_5906_37661">
<rect width="70" height="70" fill="white" transform="translate(0.335938 0.100098)"/>
</clipPath>
</defs>
</svg>
