<svg width="70" height="71" viewBox="0 0 70 71" fill="none" xmlns="http://www.w3.org/2000/svg">
<path d="M21.608 43.2271L21.5922 32.4906C21.5637 32.253 21.4465 32.0345 21.2248 31.9015L20.8289 31.7685C19.9009 31.7241 18.9698 31.7241 18.0418 31.7685L18.0355 43.4678H14.3236V30.2514L23.068 30.2672C23.863 30.2957 24.6136 30.679 25.057 31.3852C25.2344 31.6924 25.323 32.0472 25.3072 32.4462L25.2914 43.4615L21.6112 43.4678L21.608 43.2271ZM9.18333 28.3606H12.8952V43.4869L2.24097 43.4742C1.44602 43.4457 0.695409 43.0625 0.25201 42.3562C0.0746505 42.0458 -0.0140292 41.6943 0.00180645 41.2952L0.0176421 28.367L3.69785 28.3606L3.70102 28.6013L3.71686 41.2477C3.74536 41.4821 3.86254 41.7038 4.08424 41.8368L4.4833 41.9698C5.30359 41.9761 8.26169 41.9761 9.18016 41.9698L9.18333 28.3606ZM42.8563 27.1064L39.1634 27.1001L39.1698 30.2039L39.1254 30.2641L34.3082 30.2799C33.8648 30.2799 33.3961 30.3527 33.0129 30.5459C32.3192 30.9133 31.8347 31.6639 31.8347 32.4621L31.8062 40.9436C31.7903 41.4282 31.8062 41.9603 32.0722 42.372C32.5124 43.0941 33.2789 43.4457 34.0612 43.5217H42.869L42.8563 27.1064ZM39.1413 36.3608L39.1254 41.9698L39.1096 41.9983H36.313C36.0786 41.954 35.8284 41.8494 35.6954 41.6594C35.4895 41.4092 35.5181 40.9816 35.5181 40.7473L35.5624 32.3829C35.6352 32.1928 35.7398 31.9711 35.9456 31.8825L36.3447 31.7811L39.1286 31.8096L39.1571 31.9553L39.1413 36.3608ZM47.8889 37.6688L47.9332 37.5801H54.8249L55.1638 37.577V32.7091C55.1796 32.31 55.0751 31.93 54.9294 31.5911C54.6349 30.9577 53.9729 30.4288 53.2667 30.3844L46.7582 30.3876C45.9253 30.3116 45.7131 30.3717 45.2855 30.6378C44.4905 31.0812 44.1073 31.9205 44.1358 32.7883L44.12 41.2255L44.1928 41.9761C44.3385 42.6824 44.9878 43.3475 45.6941 43.4647C47.0338 43.6104 48.3291 43.5375 49.7163 43.5534L54.1915 43.5692L55.1511 43.5534L55.1479 42.0933L48.7123 42.0965L48.3323 41.9856C48.1106 41.8684 47.8762 41.6467 47.8477 41.4124C47.9142 40.212 47.8382 39.0307 47.8889 37.6688ZM47.9491 32.4557C47.9776 32.234 48.1264 32.0282 48.3323 31.911C48.4336 31.8381 48.5666 31.8223 48.6997 31.8096L50.8502 31.8255C51.056 31.854 51.2492 31.9141 51.3822 32.0915C51.5279 32.2815 51.5279 32.5191 51.5279 32.7693L51.4836 35.9649C50.3782 36.0251 49.0544 36.0092 47.9491 35.9807L47.9206 35.8477L47.9491 32.4557ZM26.7419 30.2704H30.4253V43.4869H26.7419V30.2704ZM26.7419 27.1033H30.4253V29.6813H26.7419V27.1033ZM63.7657 43.2366L63.7499 32.5001C63.7214 32.2657 63.6042 32.044 63.3825 31.911L62.9834 31.778C62.0555 31.7336 61.1243 31.7336 60.1964 31.778L60.19 43.4773H56.4781V30.2609L65.2258 30.2767C66.0207 30.3052 66.7713 30.6885 67.2147 31.3947C67.3921 31.7051 67.4808 32.0567 67.4649 32.4557L67.4491 43.471L63.7689 43.4773L63.7657 43.2366ZM68.0445 29.5705V29.1081H68.3581C68.5861 29.1081 68.7065 29.1904 68.7065 29.3361C68.7065 29.4564 68.6304 29.5705 68.3992 29.5705H68.0445ZM69.1657 30.5238L68.9725 30.1849C68.8046 29.8872 68.7571 29.8428 68.6146 29.7922V29.7827C68.8965 29.7478 69.0643 29.5673 69.0643 29.3139C69.0643 29.0479 68.8965 28.842 68.5386 28.842H67.7088V30.5238H68.0477V29.8365H68.111C68.2599 29.8365 68.3201 29.8523 68.3866 29.922C68.4784 30.0202 68.5544 30.131 68.6146 30.2514L68.7508 30.5269L69.1657 30.5238ZM68.4214 28.4081C69.1245 28.4303 69.6756 29.0162 69.6534 29.7193C69.6313 30.3907 69.0928 30.9323 68.4214 30.9513C67.7183 30.9513 67.1514 30.3812 67.1514 29.6781C67.1514 28.9782 67.7183 28.4081 68.4214 28.4081ZM68.4214 28.0977C67.5505 28.0977 66.8442 28.8008 66.841 29.6718V29.6781C66.841 30.5491 67.5473 31.2585 68.4183 31.2585C69.2892 31.2585 69.9986 30.5523 69.9986 29.6813V29.6781C70.0018 28.8072 69.2987 28.0977 68.4277 28.0946C68.4277 28.0977 68.4246 28.0977 68.4214 28.0977Z" fill="black"/>
</svg>
