<svg width="70" height="71" viewBox="0 0 70 71" fill="none" xmlns="http://www.w3.org/2000/svg">
<g clip-path="url(#clip0_5906_37666)">
<path fill-rule="evenodd" clip-rule="evenodd" d="M0 0.0998535H70V70.0999H0V0.0998535Z" fill="white"/>
<path fill-rule="evenodd" clip-rule="evenodd" d="M3.27642 27.4899H10.0507V29.3162L5.80033 34.3139H10.1999V36.0407H3.09375V34.2308L7.42726 29.2167H3.27642V27.4899ZM11.9104 27.9384C12.7736 27.5396 13.9357 27.2909 14.8824 27.2909C17.4892 27.2909 18.5684 28.3698 18.5684 30.8937V31.9894C18.5684 32.8529 18.5848 33.5005 18.6015 34.1312C18.6182 34.7788 18.6516 35.3765 18.701 36.0407H16.7414C16.6586 35.5926 16.6586 35.0282 16.6419 34.762H16.6089C16.0943 35.7084 14.9819 36.2397 13.9687 36.2397C12.4577 36.2397 10.9804 35.3264 10.9804 33.6995C10.9804 32.4208 11.5944 31.6738 12.4413 31.2587C13.2878 30.8436 14.3838 30.7605 15.3135 30.7605H16.5424C16.5424 29.3827 15.928 28.9175 14.6162 28.9175C13.6699 28.9175 12.7239 29.2828 11.9765 29.8475L11.9104 27.9384ZM14.5167 34.6128C15.1977 34.6128 15.7289 34.3139 16.0776 33.8487C16.4429 33.3672 16.5424 32.7527 16.5424 32.0885H15.5793C14.5828 32.0885 13.1055 32.2548 13.1055 33.5665C13.1055 34.2972 13.72 34.6128 14.5167 34.6128ZM20.3119 27.4899H22.3874V28.6854H22.4204C23.118 27.6395 24.1305 27.2909 24.9607 27.2909C26.1562 27.2909 27.003 27.739 27.4846 28.8016C27.9992 27.7724 29.1115 27.2909 30.1578 27.2909C32.2662 27.2909 32.864 28.7355 32.864 30.6446V36.0407H30.6393V30.9435C30.6393 30.1467 30.6393 29.0173 29.3606 29.0173C27.883 29.0173 27.7003 30.7775 27.7003 31.8899V36.0407H25.4756V30.9435C25.4756 30.1467 25.4756 29.0173 24.197 29.0173C22.7193 29.0173 22.5366 30.7775 22.5366 31.8899V36.0407H20.3119V27.4899ZM41.5477 35.5592C40.7342 36.0073 39.8042 36.2401 38.6083 36.2401C35.7859 36.2401 34.1419 34.6128 34.1419 31.8067C34.1419 29.3329 35.454 27.2905 38.1101 27.2905C41.2811 27.2905 42.1778 29.4655 42.1778 32.4542H36.2678C36.367 33.8324 37.3304 34.6128 38.7086 34.6128C39.7875 34.6128 40.7172 34.214 41.5477 33.7492V35.5592ZM40.053 30.9268C39.9861 29.8475 39.4883 28.9178 38.243 28.9178C36.9981 28.9178 36.367 29.7814 36.2678 30.9268H40.053ZM50.2307 28.6524C49.9158 28.486 48.9357 28.2703 48.2715 28.2703C45.8641 28.2703 44.5691 30.0302 44.5691 32.2882C44.5691 34.0314 45.7316 35.3435 47.3091 35.3435C47.9396 35.3435 48.5711 35.1274 49.1024 34.9447L48.9691 35.991C48.5711 36.1235 47.9065 36.2401 47.0433 36.2401C44.6025 36.2401 43.4238 34.1977 43.4238 32.3714C43.4238 29.383 45.1168 27.3737 48.3881 27.3737C49.0853 27.3737 50.0981 27.54 50.5299 27.706L50.2307 28.6524ZM55.0955 27.3737C57.2537 27.3737 58.4659 28.8183 58.4659 31.0099C58.4659 33.8324 56.689 36.2401 53.7671 36.2401C51.6753 36.2401 50.3803 34.6625 50.3803 32.5541C50.3803 29.7146 52.223 27.3737 55.0955 27.3737ZM53.8996 35.3435C56.0913 35.3435 57.3205 33.0189 57.3205 31.0263C57.3205 29.4324 56.6062 28.2703 54.963 28.2703C52.6217 28.2703 51.5257 30.5614 51.5257 32.72C51.5257 34.181 52.4223 35.3435 53.8996 35.3435ZM60.4749 28.9178C60.5748 28.3535 60.6409 27.9881 60.6743 27.5731H61.7205C61.6708 28.1044 61.6206 28.5525 61.5375 28.8517H61.5709C62.1527 27.9551 63.2149 27.3741 64.2611 27.3741C65.7882 27.3741 66.9172 28.2376 66.9172 29.8315C66.9172 30.4129 66.7847 31.0437 66.6681 31.575L65.7214 36.0414H64.6261L65.5885 31.3756C65.7047 30.828 65.7715 30.4623 65.7715 29.898C65.7715 28.9018 65.2068 28.271 64.1446 28.271C62.3183 28.271 61.3385 30.081 60.9401 32.0235L60.1096 36.0414H59.0136L60.4749 28.9178ZM3.14713 43.059L4.53837 40.8503H3.18163V40.6208H4.81728V40.8503L3.43366 43.059H4.86303V43.2882H3.14713V43.059ZM7.40438 42.9748H7.39675C7.28999 43.2079 7.01835 43.3339 6.77794 43.3339C6.22377 43.3339 6.13589 42.9595 6.13589 42.7834C6.13589 42.1301 6.83132 42.0992 7.33574 42.0992H7.38187V42.0001C7.38187 41.6678 7.26311 41.4993 6.93846 41.4993C6.73545 41.4993 6.5448 41.5454 6.36504 41.6598V41.4266C6.51393 41.354 6.76632 41.293 6.93846 41.293C7.42 41.293 7.62227 41.5109 7.62227 42.0189V42.8789C7.62227 43.0354 7.62227 43.1538 7.64152 43.2874H7.40438V42.9748ZM7.3815 42.3062H7.3125C6.89597 42.3062 6.39917 42.3483 6.39917 42.7761C6.39917 43.0321 6.58256 43.128 6.80445 43.128C7.36988 43.128 7.3815 42.6352 7.3815 42.4246V42.3062ZM6.46781 40.6934H6.7547V41.0145H6.46781V40.6934ZM7.12148 40.6934H7.40801V41.0145H7.12148V40.6934ZM10.7214 42.8295C10.7214 42.9788 10.7214 43.1316 10.7367 43.2882H10.5032V42.9406H10.4955C10.4149 43.1164 10.27 43.3343 9.86475 43.3343C9.3832 43.3343 9.19981 43.0129 9.19981 42.5855V41.3395H9.44058V42.5241C9.44058 42.8912 9.57023 43.128 9.90288 43.128C10.3423 43.128 10.4799 42.7423 10.4799 42.417V41.3395H10.7207V42.8295H10.7214ZM12.3302 41.7978C12.3302 41.6489 12.3302 41.496 12.3149 41.3391H12.5481V41.6867H12.5557C12.636 41.5113 12.7812 41.2934 13.1861 41.2934C13.6677 41.2934 13.8511 41.6144 13.8511 42.0422V43.2882H13.6103V42.1036C13.6103 41.7368 13.4803 41.4996 13.148 41.4996C12.7086 41.4996 12.571 41.8857 12.571 42.2107V43.2882H12.3302V41.7978ZM16.7668 43.2272C16.5864 43.2968 16.3948 43.3331 16.2014 43.3343C15.5554 43.3343 15.315 42.8985 15.315 42.3138C15.315 41.7175 15.6436 41.2934 16.1364 41.2934C16.6866 41.2934 16.9121 41.7368 16.9121 42.2601V42.3825H15.5786C15.5786 42.795 15.8001 43.1276 16.2207 43.1276C16.3964 43.1276 16.6524 43.055 16.7668 42.9824V43.2272ZM16.6484 42.1758C16.6484 41.8359 16.5108 41.4996 16.1517 41.4996C15.7961 41.4996 15.5782 41.8552 15.5782 42.1758H16.6484ZM18.3756 41.7749C18.3756 41.561 18.3756 41.4807 18.3604 41.3395H18.6011V41.7139H18.6088C18.6966 41.496 18.8608 41.2937 19.1092 41.2937C19.1666 41.2937 19.2352 41.305 19.2773 41.3162V41.5686C19.2201 41.5526 19.1609 41.5449 19.1016 41.5458C18.7195 41.5458 18.6164 41.9739 18.6164 42.3251V43.2878H18.3756V41.7749ZM22.7476 40.6208H23.1565L24.1309 42.9671L25.1088 40.6208H25.4872V43.2882H25.2236V40.8844H25.216L24.2456 43.2882H24.0197L23.0189 40.8844H23.0113V43.2882H22.7476V40.6208ZM28.4299 43.2272C28.2493 43.2968 28.0576 43.3331 27.8641 43.3343C27.218 43.3343 26.9776 42.8985 26.9776 42.3138C26.9776 41.7175 27.3063 41.2934 27.7994 41.2934C28.3496 41.2934 28.5751 41.7368 28.5751 42.2601V42.3825H27.2416C27.2416 42.795 27.4632 43.1276 27.8837 43.1276C28.0595 43.1276 28.3155 43.055 28.4302 42.9824L28.4299 43.2272ZM28.3115 42.1758C28.3115 41.8359 28.1739 41.4996 27.8147 41.4996C27.4592 41.4996 27.2413 41.8552 27.2413 42.1758H28.3115ZM31.5824 43.2882H31.3416V42.9788H31.334C31.204 43.2272 31.005 43.3343 30.7265 43.3343C30.1915 43.3343 29.9239 42.8909 29.9239 42.3138C29.9239 41.7212 30.1534 41.2934 30.7265 41.2934C31.1085 41.2934 31.2995 41.5723 31.334 41.6678H31.3416V40.4218H31.5824V43.2882ZM30.7646 43.1276C31.1924 43.1276 31.3416 42.669 31.3416 42.3138C31.3416 41.9587 31.1924 41.4996 30.7646 41.4996C30.3063 41.4996 30.1879 41.9354 30.1879 42.3138C30.1879 42.6919 30.3063 43.1276 30.7646 43.1276ZM33.4091 40.8194H33.1683V40.4984H33.4091V40.8194ZM33.1683 41.3395H33.4091V43.2882H33.1683V41.3395ZM36.1414 42.9748H36.1338C36.0267 43.2079 35.7558 43.3339 35.5154 43.3339C34.9608 43.3339 34.8729 42.9595 34.8729 42.7834C34.8729 42.1301 35.5687 42.0992 36.0728 42.0992H36.1189V42.0001C36.1189 41.6678 36.0005 41.4993 35.6755 41.4993C35.4725 41.4993 35.2819 41.5454 35.1021 41.6598V41.4266C35.2513 41.354 35.503 41.293 35.6755 41.293C36.1571 41.293 36.3593 41.5109 36.3593 42.0189V42.8789C36.3593 43.0354 36.3593 43.1538 36.3786 43.2874H36.1418V42.9748H36.1414ZM36.1186 42.3062H36.0499C35.633 42.3062 35.1366 42.3483 35.1366 42.7761C35.1366 43.0321 35.32 43.128 35.5415 43.128C36.1077 43.128 36.1189 42.6352 36.1189 42.4246L36.1186 42.3062ZM41.8626 40.9189C41.6937 40.8311 41.4533 40.8042 41.2659 40.8042C40.5744 40.8042 40.1841 41.2937 40.1841 41.9547C40.1841 42.6272 40.5628 43.1048 41.2659 43.1048C41.4417 43.1048 41.7093 43.0819 41.8626 42.9904L41.8774 43.2195C41.7322 43.3074 41.434 43.3343 41.2659 43.3343C40.4256 43.3343 39.9204 42.7801 39.9204 41.9547C39.9204 41.1448 40.4404 40.575 41.2659 40.575C41.4228 40.575 41.7398 40.6016 41.8774 40.6742L41.8626 40.9189ZM44.3193 41.2937C44.9497 41.2937 45.2286 41.7829 45.2286 42.3142C45.2286 42.8451 44.9497 43.3346 44.3193 43.3346C43.6889 43.3346 43.4092 42.8451 43.4092 42.3142C43.4096 41.7825 43.6889 41.2937 44.3193 41.2937ZM44.3193 43.1276C44.7398 43.1276 44.9646 42.7645 44.9646 42.3138C44.9646 41.8628 44.7398 41.4996 44.3193 41.4996C43.8988 41.4996 43.6732 41.8628 43.6732 42.3138C43.6732 42.7645 43.8988 43.1276 44.3193 43.1276ZM46.6885 41.7978C46.6885 41.6489 46.6885 41.496 46.6736 41.3391H46.9064V41.6867H46.914C46.9943 41.5113 47.1395 41.2934 47.5445 41.2934C48.026 41.2934 48.2098 41.6144 48.2098 42.0422V43.2882H47.9686V42.1036C47.9686 41.7368 47.839 41.4996 47.5063 41.4996C47.0673 41.4996 46.9296 41.8857 46.9296 42.2107V43.2882H46.6885V41.7978ZM49.6696 43.0053C49.8142 43.0779 49.9903 43.1276 50.1773 43.1276C50.4072 43.1276 50.6091 43.0013 50.6091 42.7797C50.6091 42.3175 49.6729 42.3901 49.6729 41.8243C49.6729 41.4386 49.9863 41.2934 50.307 41.2934C50.4105 41.2934 50.6171 41.3159 50.7885 41.3812L50.766 41.5911C50.6294 41.5326 50.4827 41.5014 50.3342 41.4993C50.0858 41.4993 49.9137 41.5759 49.9137 41.8243C49.9137 42.1874 50.8735 42.1417 50.8735 42.7797C50.8735 43.1927 50.4878 43.3339 50.1933 43.3339C50.0059 43.3339 49.8189 43.311 49.6464 43.242L49.6696 43.0053ZM53.831 42.8295C53.831 42.9788 53.831 43.1316 53.8466 43.2882H53.6131V42.9406H53.6055C53.5252 43.1164 53.38 43.3343 52.975 43.3343C52.4935 43.3343 52.3105 43.0129 52.3105 42.5855V41.3395H52.5509V42.5241C52.5509 42.8912 52.6805 43.128 53.0132 43.128C53.4522 43.128 53.5899 42.7423 53.5899 42.417V41.3395H53.831V42.8295ZM55.4394 40.4222H55.6809V43.2882H55.4394V40.4222ZM58.1333 41.5458H57.6899V42.8066C57.6899 42.9824 57.7552 43.128 57.9502 43.128C58.0418 43.128 58.1028 43.1088 58.1714 43.0819L58.187 43.2809C58.0926 43.3154 57.993 43.3334 57.8925 43.3343C57.4647 43.3343 57.4491 43.0398 57.4491 42.6846V41.5458H57.0667V41.3395H57.4491V40.8696L57.6895 40.7853V41.3395H58.1329L58.1333 41.5458ZM59.8118 40.8194H59.5706V40.4984H59.8118V40.8194ZM59.5703 41.3395H59.8114V43.2882H59.5703V41.3395ZM61.4238 41.7978C61.4238 41.6489 61.4238 41.496 61.4089 41.3391H61.6417V41.6867H61.6493C61.7296 41.5113 61.8748 41.2934 62.2798 41.2934C62.7613 41.2934 62.9443 41.6144 62.9443 42.0422V43.2882H62.7039V42.1036C62.7039 41.7368 62.5743 41.4996 62.2416 41.4996C61.8019 41.4996 61.6649 41.8857 61.6649 42.2107V43.2882H61.4238V41.7978ZM66.0972 43.1276C66.0972 43.6702 65.8525 44.1136 65.1843 44.1136C64.9282 44.1136 64.6947 44.041 64.5956 44.0105L64.6148 43.7697C64.7637 43.8463 64.978 43.9073 65.1879 43.9073C65.8071 43.9073 65.8605 43.4567 65.8605 42.9061H65.8528C65.7232 43.1887 65.5097 43.2882 65.2605 43.2882C64.6377 43.2882 64.4391 42.7456 64.4391 42.3138C64.4391 41.7212 64.6682 41.2934 65.2413 41.2934C65.5017 41.2934 65.6698 41.3275 65.8492 41.5606H65.8568V41.3391H66.0972V43.1276ZM65.2645 43.0815C65.6999 43.0815 65.8568 42.669 65.8568 42.3138C65.8568 41.8435 65.7192 41.4996 65.2794 41.4996C64.8211 41.4996 64.7027 41.9354 64.7027 42.3138C64.7027 42.6959 64.8553 43.0815 65.2645 43.0815Z" fill="black"/>
</g>
<defs>
<clipPath id="clip0_5906_37666">
<rect width="70" height="70" fill="white" transform="translate(0 0.100098)"/>
</clipPath>
</defs>
</svg>
