<?xml version="1.0" standalone="no"?>
<!DOCTYPE svg PUBLIC "-//W3C//DTD SVG 1.1//EN" "http://www.w3.org/Graphics/SVG/1.1/DTD/svg11.dtd">
<svg xmlns="http://www.w3.org/2000/svg">
<metadata>Copyright (C) 2025 by original authors @ fontello.com</metadata>
<defs>
<font id="fontello" horiz-adv-x="1000" >
<font-face font-family="fontello" font-weight="400" font-stretch="normal" units-per-em="1000" ascent="850" descent="-150" />
<missing-glyph horiz-adv-x="1000" />
<glyph glyph-name="key" unicode="&#xe800;" d="M858 788c-10 9-26 9-36 0l-367-368c-42 34-96 55-155 55-135 0-245-110-245-245 0-135 110-245 245-245 135 0 245 110 245 245 0 59-20 113-55 155l130 130 102-103c5-4 12-7 18-7 7 0 13 3 18 7l140 140c10 10 10 26 0 36l-103 102 63 62c10 10 10 26 0 36z m-98-133l85-85-105-105-85 85 105 105z m-460-230c54 0 103-22 138-57 35-35 57-84 57-138 0-108-87-195-195-195-108 0-195 87-195 195 0 108 87 195 195 195z" horiz-adv-x="1000" />

<glyph glyph-name="menu" unicode="&#xe801;" d="M92 374c0 14 12 26 26 26h711c15 0 26-12 26-26 0-15-11-26-26-26h-711c-14 0-26 11-26 26z m0 237c0 14 12 26 26 26h711c15 0 26-12 26-26 0-15-11-27-26-27h-711c-14 0-26 12-26 27z m0-474c0 15 12 26 26 26h711c15 0 26-11 26-26 0-15-11-26-26-26h-711c-14 0-26 11-26 26z" horiz-adv-x="947" />

<glyph glyph-name="check-circle-tiny" unicode="&#xe802;" d="M664 717c-80 36-168 44-253 25-84-19-160-65-217-131-56-65-89-148-95-234-6-87 17-173 64-245 47-73 116-129 198-159 81-30 170-33 253-8 83 24 156 75 208 145 52 69 80 153 80 240v38c0 9 7 15 15 15 8 0 14-6 14-15v-38c0-93-30-183-85-258-56-74-134-129-224-155-89-27-184-24-271 9-88 32-162 91-213 170-50 78-75 170-68 263 6 93 42 181 102 252 61 70 142 120 233 140 91 21 186 11 271-27 7-3 10-12 7-19-3-8-12-11-19-8z m263-23c6-6 6-15 0-21l-417-417c-2-3-6-4-10-4-4 0-8 1-10 4l-125 125c-6 6-6 15 0 21 5 5 15 5 20 0l115-115 406 407c6 6 15 6 21 0z" horiz-adv-x="1000" />

<glyph glyph-name="search" unicode="&#xe803;" d="M437 705c-163 0-294-132-294-294 0-162 131-293 294-293 162 0 293 131 293 293 0 162-131 294-293 294z m-342-294c0 189 153 342 342 342 188 0 341-153 341-342 0-188-153-341-341-341-189 0-342 153-342 341z m549-207c9 9 24 9 34 0l172-173c10-9 10-24 0-33-9-10-24-10-33 0l-173 172c-9 10-9 25 0 34z" horiz-adv-x="952" />

<glyph glyph-name="square" unicode="&#xe804;" d="M119 669c0 33 27 60 60 60h595c33 0 59-27 59-60v-595c0-33-26-60-59-60h-595c-33 0-60 27-60 60v595z m655 0h-595v-595h595v595z" horiz-adv-x="952" />

<glyph glyph-name="tg" unicode="&#xe805;" d="M273 260l524 328c15 9 26 9 30 4l63 66 62 65c-19 11-56-5-56-5l-824-318c0 0-39-13-36-38 3-24 35-35 35-35l101-34 101-33z m544-290l147 729c0 13-5 21-12 24l-62-65-63-66c3-4 0-12-11-23-15-14-370-328-416-369l1-1 339-256c57-24 77 27 77 27z m-544 290l524 328c15 9 26 9 30 4l63 66 62 65c-19 11-56-5-56-5l-824-318c0 0-39-13-36-38 3-24 35-35 35-35l101-34 101-33z" horiz-adv-x="1000" />

<glyph glyph-name="user" unicode="&#xe806;" d="M474 703c-73 0-132-59-132-132 0-72 59-131 132-131 72 0 131 59 131 131 0 73-59 132-131 132z m-185-132c0 102 83 184 185 184 101 0 184-82 184-184 0-102-83-184-184-184-102 0-185 82-185 184z m-103-343c34 34 81 54 130 54h316c48 0 95-20 130-54 34-35 54-82 54-130v-79c0-15-12-27-26-27-15 0-27 12-27 27v79c0 34-14 68-38 93-25 24-58 38-93 38h-316c-35 0-69-14-93-38-25-25-39-59-39-93v-79c0-15-12-27-26-27-15 0-26 12-26 27v79c0 48 19 95 54 130z" horiz-adv-x="947" />

<glyph glyph-name="whatsapp" unicode="&#xe807;" d="M114 52l50 175c-31 51-47 109-47 169 0 186 159 338 353 338 95 0 184-35 251-99 67-64 103-149 103-239 0-187-159-338-354-338-59 0-117 14-169 41l-187-47z m196 108c50-28 97-45 160-45 162 0 294 126 295 281 0 155-132 281-294 281-163 0-294-126-295-281 0-63 20-111 52-160l-29-104 111 28z m339 155c-2 4-8 6-17 10-9 4-53 25-61 28-8 2-14 4-20-5-5-8-22-27-28-33-5-5-10-6-19-2-9 4-37 13-71 42-26 22-44 50-49 59-5 8-1 13 4 17 4 4 9 10 13 15 5 4 6 8 9 14 3 5 2 10-1 14-2 5-20 46-27 63-7 17-14 14-20 15l-17 0c-6 0-15-2-23-11-8-8-31-29-31-70 0-42 31-82 36-87 4-6 62-91 151-128 21-9 37-14 50-18 21-6 41-5 56-3 17 2 52 20 60 40 7 20 7 37 5 40z" horiz-adv-x="947" />

<glyph glyph-name="plus" unicode="&#xe808;" d="M500 675c18 0 33-15 33-33v-584c0-18-15-33-33-33-18 0-33 15-33 33v584c0 18 15 33 33 33z m-325-325c0 18 15 33 33 33h584c18 0 33-15 33-33 0-18-15-33-33-33h-584c-18 0-33 15-33 33z" horiz-adv-x="1000" />

<glyph glyph-name="check" unicode="&#xe809;" d="M811 627c9-10 9-25 0-34l-437-437c-9-9-24-9-34 0l-198 199c-9 9-9 24 0 33 9 10 24 10 34 0l181-181 420 420c9 9 24 9 34 0z" horiz-adv-x="952" />

<glyph glyph-name="check-circle" unicode="&#xe80a;" d="M628 713c-73 32-156 40-234 23-78-18-149-61-201-122-53-61-84-137-89-218-5-80 16-160 59-227 44-68 108-119 184-147 75-28 158-31 235-8 77 23 145 70 193 134 48 65 74 143 74 224v36c0 13 11 24 24 24 13 0 24-11 24-24v-36c0-91-30-179-84-252-54-73-131-126-218-152-87-25-179-22-265 9-85 32-157 90-207 166-49 76-72 166-67 256 6 91 42 177 100 246 59 69 139 117 228 137 88 20 181 11 263-26 12-5 18-19 12-31-5-12-19-18-31-12z m262-7c9-9 9-24 0-34l-397-397c-4-4-10-7-17-7-6 0-12 3-17 7l-119 119c-9 9-9 24 0 34 10 9 25 9 34 0l102-103 380 381c10 9 25 9 34 0z" horiz-adv-x="952" />

<glyph glyph-name="git-pull-request" unicode="&#xe80b;" d="M750 208c-60 0-108-48-108-108 0-60 48-108 108-108 60 0 108 48 108 108 0 60-48 108-108 108z m-142-108c0 78 64 142 142 142 78 0 142-64 142-142 0-78-64-142-142-142-78 0-142 64-142 142z m-358 608c-60 0-108-48-108-108 0-60 48-108 108-108 60 0 108 48 108 108 0 60-48 108-108 108z m-142-108c0 78 64 142 142 142 78 0 142-64 142-142 0-78-64-142-142-142-78 0-142 64-142 142z m417 0c0 9 8 17 17 17h125c26 0 52-11 70-30 19-18 30-44 30-70v-292c0-9-8-17-17-17-9 0-17 8-17 17v292c0 17-7 34-19 47-13 12-30 19-47 19h-125c-9 0-17 8-17 17z m-275-108c9 0 17-8 17-17v-500c0-9-8-17-17-17-9 0-17 8-17 17v500c0 9 8 17 17 17z" horiz-adv-x="1000" />

<glyph glyph-name="close" unicode="&#xe80c;" d="M764 614c8-8 8-20 0-28l-500-500c-8-8-20-8-28 0-8 8-8 20 0 28l500 500c8 8 20 8 28 0z m-528 0c8 8 20 8 28 0l500-500c8-8 8-20 0-28-8-8-20-8-28 0l-500 500c-8 8-8 20 0 28z" horiz-adv-x="1000" />

<glyph glyph-name="arrow-up-right" unicode="&#xe80d;" d="M719 569c6-6 6-15 0-21l-417-417c-6-5-15-5-21 0-5 6-5 15 0 21l417 417c6 6 15 6 21 0z m-442-11c0 9 7 15 15 15h416c9 0 15-6 15-15v-416c0-8-6-15-15-15-8 0-14 7-14 15v402h-402c-8 0-15 6-15 14z" horiz-adv-x="1000" />

<glyph glyph-name="star" unicode="&#xe80e;" d="M500 767l129-261 288-42-209-203 50-287-258 136-257-136 49 287-209 203 288 42 129 261z m0 41c16 0 30-9 37-23l119-241 267-39c15-2 28-13 33-28 5-15 1-32-10-43l-193-188 46-265c2-15-4-31-17-41-13-9-30-10-44-3l-238 126-238-126c-14-7-31-6-44 3-13 10-19 26-17 41l46 265-193 188c-11 11-15 28-10 43 5 15 18 26 33 28l267 39 119 241c7 14 21 23 37 23z m0-135l-91-186c-6-12-18-20-32-22l-204-30 148-144c10-10 14-24 12-37l-35-204 183 97c12 6 26 6 38 0l183-97-35 204c-2 13 2 27 12 37l148 144-204 30c-14 2-25 10-32 22l-91 186z" horiz-adv-x="1000" />

<glyph glyph-name="alert-triangle" unicode="&#xe80f;" d="M446 743c16 9 35 14 54 14 19 0 38-5 55-14 16-10 30-23 40-39l0-1 353-589c10-17 15-36 15-55 0-20-5-39-14-56-10-17-24-31-41-40-16-10-35-16-55-16l0 0-706 0c-20 0-39 6-55 16-17 9-31 23-40 40-10 17-15 36-15 56 0 19 5 38 15 55l0 0 353 589 24-14-24 15c10 16 24 29 41 39z m7-68c0 0 0 0 0 0l-353-589c-5-8-7-18-8-27 0-10 3-20 8-28 5-9 12-16 20-21 8-4 18-7 27-7h706c9 0 19 3 27 7 9 5 16 12 20 21 5 8 8 18 8 28 0 9-3 19-8 27l-352 589c0 0 0 0 0 0-5 8-12 15-21 19-8 5-17 8-27 8-9 0-19-3-27-8-9-4-15-11-20-19z m19-533c0 15 13 27 28 27h0c16 0 28-12 28-27 0-16-12-28-28-28h0c-15 0-28 12-28 28z m28 361c15 0 28-13 28-28v-167c0-15-13-27-28-27-15 0-28 12-28 27v167c0 15 13 28 28 28z" horiz-adv-x="1000" />

<glyph glyph-name="arrow-up-right-medium" unicode="&#xe810;" d="M726 576c10-10 10-26 0-35l-417-417c-9-10-25-10-35 0-10 10-10 26 0 35l417 417c9 10 25 10 35 0z m-459-18c0 14 11 25 25 25h416c14 0 25-11 25-25v-416c0-14-11-25-25-25-13 0-25 11-25 25v391h-391c-14 0-25 12-25 25z" horiz-adv-x="1000" />

<glyph glyph-name="corner-right-down" unicode="&#xe811;" d="M393 249c13 13 34 13 47 0l185-185 185 185c13 13 34 13 47 0 13-13 13-35 0-48l-208-208c-13-13-35-13-48 0l-208 208c-13 13-13 35 0 48z m-260 434c0 19 15 34 34 34h291c53 0 104-21 142-59 37-37 58-88 58-141v-500c0-19-15-34-33-34-18 0-33 15-33 34v500c0 35-14 69-39 94-25 25-59 39-95 39h-291c-19 0-34 15-34 33z" horiz-adv-x="1000" />

<glyph glyph-name="alert-triangle-tiny" unicode="&#xe812;" d="M451 733c15 9 32 13 49 13 17 0 34-4 49-13 15-8 28-20 36-35l1 0 353-590c8-15 13-32 13-49 0-18-5-35-13-50-9-15-21-28-36-37-15-9-32-14-50-14l0 0-706 0c-18 0-35 5-50 14-15 9-27 22-36 37-9 15-13 32-13 50 0 17 5 34 13 49l1 1 352 589 15-9-15 9c9 15 22 27 37 35z m-8-52c0 0 0 0 0 0l-353-589c-6-10-9-22-9-33 0-12 3-24 9-34 6-10 14-18 24-24 10-6 22-9 33-9h706c11 0 23 3 33 9 10 6 18 14 24 24 6 10 9 22 9 34 0 11-3 23-9 33l-353 589c0 0 0 0 0 0-6 9-14 17-24 23-10 6-22 9-33 9-11 0-23-3-33-9-10-6-18-14-24-23z m40-539c0 9 8 16 17 16h0c10 0 17-7 17-16 0-9-7-17-17-17h0c-9 0-17 8-17 17z m17 350c9 0 17-8 17-17v-167c0-9-8-16-17-16-9 0-17 7-17 16v167c0 9 8 17 17 17z" horiz-adv-x="1000" />

<glyph glyph-name="arrow-right" unicode="&#xe813;" d="M177 350c0 17 14 31 31 31h584c17 0 31-14 31-31 0-17-14-31-31-31h-584c-17 0-31 14-31 31z m301 314c12 12 32 12 44 0l292-292c12-12 12-32 0-44l-292-292c-12-12-32-12-44 0-12 12-12 32 0 44l270 270-270 270c-12 12-12 32 0 44z" horiz-adv-x="1000" />

<glyph glyph-name="chevron-right" unicode="&#xe814;" d="M357 618c10 9 26 9 36 0l250-250c9-10 9-26 0-36l-250-250c-10-9-26-9-36 0-9 10-9 26 0 36l233 232-233 232c-9 10-9 26 0 36z" horiz-adv-x="1000" />

<glyph glyph-name="grid" unicode="&#xe815;" d="M110 725c0 8 7 15 15 15h292c8 0 14-7 14-15v-292c0-8-6-14-14-14h-292c-8 0-15 6-15 14v292z m30-15v-262h262v262h-262z m429 15c0 8 6 15 14 15h292c8 0 15-7 15-15v-292c0-8-7-14-15-14h-292c-8 0-14 6-14 14v292z m29-15v-262h262v262h-262z m-29-443c0 8 6 14 14 14h292c8 0 15-6 15-14v-292c0-8-7-15-15-15h-292c-8 0-14 7-14 15v292z m29-15v-262h262v262h-262z m-488 15c0 8 7 14 15 14h292c8 0 14-6 14-14v-292c0-8-6-15-14-15h-292c-8 0-15 7-15 15v292z m30-15v-262h262v262h-262z" horiz-adv-x="1000" />

<glyph glyph-name="alert-circle" unicode="&#xe816;" d="M500 743c-217 0-393-176-393-393 0-217 176-393 393-393 217 0 393 176 393 393 0 217-176 393-393 393z m-440-393c0 243 197 441 440 441 243 0 441-198 441-441 0-243-198-441-441-441-243 0-440 198-440 441z m440 191c13 0 24-11 24-24v-167c0-13-11-24-24-24-13 0-24 11-24 24v167c0 13 11 24 24 24z m-24-358c0 14 11 24 24 24h0c14 0 24-10 24-24 0-13-10-23-24-23h0c-13 0-24 10-24 23z" horiz-adv-x="1000" />

<glyph glyph-name="file-text" unicode="&#xe817;" d="M171 762c21 21 50 32 79 32h333c8 0 15-2 20-8l250-250c5-5 8-12 8-19v-500c0-30-12-58-32-79-21-21-49-32-79-32h-500c-29 0-58 11-79 32-20 21-32 49-32 79v666c0 30 12 58 32 79z m79-23c-15 0-29-6-39-16-11-11-17-25-17-40v-666c0-15 6-29 17-40 10-10 24-16 39-16h500c15 0 29 6 39 16 11 11 17 25 17 40v488l-234 234h-322z m333 55c16 0 28-12 28-27v-223h222c16 0 28-12 28-27 0-16-12-28-28-28h-250c-15 0-27 12-27 28v250c0 15 12 27 27 27z m-277-486c0 16 12 28 27 28h334c15 0 27-12 27-28 0-15-12-27-27-27h-334c-15 0-27 12-27 27z m0-166c0 15 12 27 27 27h334c15 0 27-12 27-27 0-16-12-28-27-28h-334c-15 0-27 12-27 28z m0 333c0 15 12 28 27 28h84c15 0 27-13 27-28 0-15-12-28-27-28h-84c-15 0-27 13-27 28z" horiz-adv-x="1000" />

<glyph glyph-name="shield" unicode="&#xe818;" d="M490 793c7 2 14 2 20 0l333-125c11-4 18-15 18-26v-292c0-137-91-249-176-323-43-38-86-67-118-87-16-10-30-18-39-23-5-3-9-5-11-6-2-1-3-2-3-2l-1 0 0-1 0 0-1 0c0 0 0 0-12 25-12-25-12-25-12-25l0 0 0 0-1 1-1 0c0 0-1 1-3 2-2 1-6 3-11 6-9 5-23 13-39 23-32 20-75 49-118 87-85 74-176 186-176 323v292c0 11 7 22 18 26l333 125z m10-860l-12-25c7-3 17-3 24 0l-12 25z m0 32c0 0 1 0 1 0 9 5 21 12 36 22 31 19 71 47 111 82 82 71 158 168 158 281v272l-306 115-306-115v-272c0-113 76-210 158-281 40-35 80-63 111-82 15-10 27-17 36-22 0 0 1 0 1 0z" horiz-adv-x="1000" />

<glyph glyph-name="alert-question" unicode="&#xe819;" d="M500 731c-210 0-381-171-381-381 0-210 171-381 381-381 210 0 381 171 381 381 0 210-171 381-381 381z m-452-381c0 250 202 452 452 452 250 0 452-202 452-452 0-250-202-452-452-452-250 0-452 202-452 452z m452-250c26 0 47 21 47 47 0 26-21 47-47 47-26 0-47-21-47-47 0-26 21-47 47-47z m-54 458c26 11 54 14 81 8 28-5 53-19 72-38 20-20 34-45 39-72 5-28 3-56-8-82-11-25-29-47-52-63-14-9-30-16-47-20v-3c0-18-14-32-31-32-17 0-31 14-31 32v31c0 8 3 16 9 22 6 6 14 9 22 9 16 0 31 5 43 13 13 9 23 21 29 35 6 15 8 30 5 45-3 16-11 29-22 40-11 11-25 19-40 22-15 3-31 1-45-5-14-6-26-16-35-28-8-13-13-28-13-44 0-17-14-31-31-31-18 0-32 14-32 31 0 28 9 55 24 78 16 23 38 41 63 52z" horiz-adv-x="1000" />

<glyph glyph-name="phone-medium" unicode="&#xe81a;" d="M832-82c-4 0-8 0-8 0-132 16-260 60-368 132-104 64-192 152-256 256-72 112-116 240-132 368 0 16 0 28 4 44 8 12 12 24 24 36 8 12 20 20 36 24 12 4 28 8 40 8h124c24 0 48-8 68-24 20-16 32-40 36-64 4-40 16-76 28-112 8-20 8-40 4-56-4-20-12-36-28-52l-44-44c56-92 132-168 220-220l40 44c16 16 32 24 52 28 20 4 40 4 56-4 36-12 76-24 112-28 24-4 48-16 64-36 16-20 24-44 24-68v-124c0-16-4-28-8-40-4-12-16-24-24-36-12-8-24-16-36-20-4-12-16-12-28-12z m-536 828c0 0 0 0 0 0h-124c-8 0-16 0-24-4-12-4-16-8-24-16-4-8-8-16-12-24-4-8-4-16-4-24 12-124 56-248 124-352 64-96 148-184 244-244 104-68 228-112 352-124 8 0 16 0 24 4 8 4 16 8 24 12 8 4 12 12 16 20 4 8 4 16 4 24v124c0 0 0 0 0 0 0 16-4 32-16 44-12 12-24 20-40 20-40 4-84 16-120 32-12 4-24 4-36 4-12-4-24-8-32-16l-52-52c-8-8-16-8-24-4-108 60-196 152-256 256-4 8-4 16 4 24l52 52c8 8 16 20 16 32 4 12 0 24-4 36-12 40-24 80-28 124-4 12-8 28-20 36-12 12-28 16-44 16z" horiz-adv-x="1000" />

<glyph glyph-name="star-half" unicode="&#xe81b;" d="M500 808c16 0 30-9 37-23l119-241 267-39c15-2 28-13 33-28 5-15 1-32-10-43l-193-188 46-265c2-15-4-31-17-41-13-9-30-10-44-3l-238 126-238-126c-14-7-31-6-44 3-13 10-19 26-17 41l46 265-193 188c-11 11-15 28-10 43 5 15 18 26 33 28l267 39 119 241c7 14 21 23 37 23z m0-135l-91-186c-6-12-18-20-32-22l-204-30 148-144c10-10 14-24 12-37l-35-204 183 97c6 3 12 4 19 4 7 0 13-1 19-4l183-97-35 204c-2 13 2 27 12 37l148 144-204 30c-14 2-25 10-32 22l-91 186z m0 0l-91-186c-6-12-18-20-32-22l-204-30 148-144c10-10 14-24 12-37l-35-204 183 97c6 3 12 4 19 4v522z" horiz-adv-x="1000" />

<glyph glyph-name="star-empty" unicode="&#xe81c;" d="M500 808c16 0 30-9 37-23l119-241 267-39c15-2 28-13 33-28 5-15 1-32-10-43l-193-188 46-265c2-15-4-31-17-41-13-9-30-10-44-3l-238 126-238-126c-14-7-31-6-44 3-13 10-19 26-17 41l46 265-193 188c-11 11-15 28-10 43 5 15 18 26 33 28l267 39 119 241c7 14 21 23 37 23z m0-135l-91-186c-6-12-18-20-32-22l-204-30 148-144c10-10 14-24 12-37l-35-204 183 97c6 3 12 4 19 4 7 0 13-1 19-4l183-97-35 204c-2 13 2 27 12 37l148 144-204 30c-14 2-25 10-32 22l-91 186z" horiz-adv-x="1000" />

<glyph glyph-name="bell" unicode="&#xe81d;" d="M465-20c-8 15-27 20-42 12-15-9-20-28-12-43 10-18 25-32 42-42 18-10 37-15 57-15 20 0 40 5 58 15 17 10 31 24 41 42 9 15 4 34-11 43-15 8-34 3-43-12-4-8-11-14-19-19-8-4-17-7-26-7-9 0-18 3-26 7-8 5-14 11-19 19z m-139 669c49 49 115 76 184 76v63c-85 0-167-34-228-95-60-61-94-143-94-228v-209c0-25-10-48-28-66-17-18-41-27-66-27-17 0-31-14-31-32 0-17 14-31 31-31h416l0 63h-291c20 26 31 59 31 93v209c0 69 27 135 76 184z m445-393c0-34 11-67 31-93h-291l0-63h416c17 0 31 14 31 31 0 18-14 32-31 32-25 0-48 9-66 27-18 18-28 41-28 66v209c0 85-34 167-94 228-61 61-143 95-228 95v-63c69 0 135-27 184-76 49-49 76-115 76-184v-209z" horiz-adv-x="1000" />

<glyph glyph-name="mouse-pointer" unicode="&#xe81e;" d="M103 747c9 9 22 12 34 7l707-295c12-5 20-17 19-30 0-13-9-24-21-28l-293-100-100-293c-4-12-15-21-28-21-13-1-25 7-30 19l-295 707c-5 12-2 25 7 34z m80-80l234-561 78 230c3 9 10 16 19 19l230 78-561 234z m337-337c12 13 32 13 44 0l250-250c12-12 12-31 0-44-12-12-32-12-44 0l-250 250c-13 13-13 32 0 44z" horiz-adv-x="1000" />

<glyph glyph-name="lock" unicode="&#xe81f;" d="M208 360c-28 0-52-23-52-52v-291c0-29 24-52 52-52h584c28 0 52 23 52 52v291c0 29-24 52-52 52h-584z m-114-52c0 64 51 115 114 115h584c63 0 114-51 114-115v-291c0-64-51-115-114-115h-584c-63 0-114 51-114 115v291z m406 427c-47 0-92-18-125-51-33-34-52-79-52-126v-166c0-18-14-32-31-32-17 0-31 14-31 32v166c0 64 25 125 70 170 45 45 106 70 169 70 64 0 125-25 170-70 44-45 70-106 70-170v-166c0-18-14-32-32-32-17 0-31 14-31 32v166c0 47-18 92-52 126-33 33-78 51-125 51z" horiz-adv-x="1000" />

<glyph glyph-name="phone" unicode="&#xe820;" d="M119 704c-6-6-12-12-18-18-12-12-20-35-20-67 1-33 9-74 27-120 35-93 106-207 220-321 114-114 228-185 321-220 46-18 87-26 120-27 32 0 55 8 67 20 6 6 12 12 18 17 9 9 17 17 26 26 14 15 26 30 33 46 6 16 8 32 2 50-7 18-23 39-52 63-61 49-97 58-122 53-13-3-25-10-37-20-10-8-19-18-29-28-4-3-7-6-10-10l0 0c-14-13-32-15-50-11-18 3-38 14-59 27-41 27-88 69-130 112-43 42-85 89-112 130-13 21-24 41-27 59-4 18-2 36 11 50l0 0c4 3 7 7 10 10 10 10 20 19 28 29 10 12 17 24 20 37 5 25-4 61-53 122-24 30-45 45-63 52-18 6-34 4-50-2-16-7-31-19-46-33-9-8-17-17-25-26z m129 82c23-8 48-27 73-59 50-62 65-105 58-141-4-18-14-33-25-47-9-11-20-21-30-31-3-3-6-6-9-9-6-6-9-15-6-29 3-14 12-31 24-51 26-39 67-84 109-127l0 0c43-42 88-83 127-109 20-12 37-21 51-24 14-3 22 0 28 6 3 3 6 6 9 9 11 10 21 21 32 30 13 11 29 21 47 25 36 8 79-8 141-58 32-25 51-50 59-73 9-24 7-47-2-67-8-20-22-37-37-53-9-9-19-19-28-27-6-6-11-11-16-16-19-19-49-27-85-27-36 0-79 10-127 28-97 36-214 110-330 225-116 116-189 233-225 330-18 48-27 91-28 127 0 36 8 66 27 85l0 0 0 0c5 5 10 10 16 16 9 10 18 19 27 28 16 15 34 29 53 37 20 9 43 11 67 2z" horiz-adv-x="1000" />

<glyph glyph-name="file-text-tiny" unicode="&#xe821;" d="M181 752c18 19 43 29 69 29h333c4 0 8-2 11-4l250-250c2-3 4-7 4-10v-500c0-26-11-51-29-69-18-19-43-29-69-29h-500c-26 0-51 10-69 29-18 18-29 43-29 69v666c0 26 11 51 29 69z m69 0c-18 0-36-7-49-20-13-13-20-30-20-49v-666c0-19 7-36 20-49 13-13 31-20 49-20h500c18 0 36 7 49 20 13 13 20 30 20 49v494l-242 241h-327z m333 29c8 0 15-6 15-14v-236h235c8 0 15-6 15-14 0-8-7-15-15-15h-250c-8 0-14 7-14 15v250c0 8 6 14 14 14z m-264-473c0 8 6 15 14 15h334c8 0 14-7 14-15 0-7-6-14-14-14h-334c-8 0-14 7-14 14z m0-166c0 8 6 14 14 14h334c8 0 14-6 14-14 0-8-6-15-14-15h-334c-8 0-14 7-14 15z m0 333c0 8 6 14 14 14h84c8 0 14-6 14-14 0-8-6-14-14-14h-84c-8 0-14 6-14 14z" horiz-adv-x="1000" />

<glyph glyph-name="shopping-cart" unicode="&#xe822;" d="M375-15c-6 0-10-4-10-10 0-6 4-10 10-10 6 0 10 4 10 10 0 6-4 10-10 10z m-73-10c0 40 33 73 73 73 40 0 73-33 73-73 0-40-33-73-73-73-40 0-73 33-73 73z m531 10c-5 0-10-4-10-10 0-6 5-10 10-10 6 0 11 4 11 10 0 6-5 10-11 10z m-72-10c0 40 32 73 72 73 41 0 73-33 73-73 0-40-32-73-73-73-40 0-72 33-72 73z m-750 833c0 18 14 32 31 32h166c15 0 28-11 31-25l37-184h682c10 0 19-4 25-11 5-7 8-17 6-26l-67-349 0-1c-5-26-19-50-40-67-21-16-47-25-74-25h-404c-27 0-53 9-74 25-21 17-35 41-41 67 0 0 0 0 0 0l-69 348c0 1-1 2-1 3l-36 182h-141c-17 0-31 14-31 31z m277-239l63-312c2-12 9-23 18-31 10-8 22-12 34-11l0 0 406 0c12-1 24 3 34 11 9 8 16 19 18 30 0 0 0 1 0 1l60 312h-633z" horiz-adv-x="1000" />

<glyph glyph-name="globe" unicode="&#xe823;" d="M510 788c-247 0-447-201-447-448 0-248 200-448 447-448l-71 69c-168 31-299 173-313 347h188l0 63h-188c14 174 145 316 313 348l71 69z m135-417h-268c9 123 56 241 134 337l0 80-71-69c-74-102-118-222-126-348l0-63c8-125 52-246 126-347l71-69 0 79c-78 96-125 214-134 337h268 1 61 188l64 32-64 31h-188-62z m-134-479c247 0 447 200 447 448l-63-32c-14-174-144-316-313-347 73 101 117 222 125 347h-61-2c-9-123-55-241-133-337l0-79z m447 448c0 247-200 448-447 448l0-80c78-96 124-214 133-337h63c-8 126-52 246-125 348 169-32 299-174 313-348l63-31z" horiz-adv-x="1000" />

<glyph glyph-name="zap" unicode="&#xe824;" d="M875 465h-339l-36-63h308l-305-367 28 228-66-28-37-298c-2-14 5-27 18-32 13-6 28-2 37 8l416 500c8 10 10 23 5 34-6 11-17 18-29 18z m-321 330c13-5 20-18 19-32l-38-298-35-63c-9 0-17 4-23 11-6 6-9 15-8 24l28 228-305-367h308c9 0 18-4 23-11 6-6 9-15 8-24l-66-28h-340c-12 0-23 7-28 18-5 11-4 24 4 34l417 500c9 10 23 14 36 8z" horiz-adv-x="1000" />

<glyph glyph-name="shuffle" unicode="&#xe825;" d="M650 725c0 9 8 17 17 17h208c9 0 17-8 17-17v-208c0-9-8-17-17-17-9 0-17 8-17 17v191h-191c-9 0-17 8-17 17z m237 12c6-7 6-17 0-24l-708-708c-7-7-18-7-24 0-7 6-7 17 0 24l708 708c7 6 17 6 24 0z m-12-537c9 0 17-7 17-17v-208c0-9-8-17-17-17h-208c-9 0-17 8-17 17 0 9 8 17 17 17h191v191c0 10 8 17 17 17z m-262 37c7 6 17 6 24 0l250-250c6-7 6-17 0-24-7-6-17-6-24 0l-250 250c-6 7-6 17 0 24z m-458 458c6 7 17 7 24 0l208-208c6-7 6-17 0-24-7-6-17-6-24 0l-208 209c-7 6-7 17 0 23z" horiz-adv-x="1000" />

<glyph glyph-name="database" unicode="&#xe826;" d="M165 677c-17-13-23-25-23-35 0-10 6-22 23-36 17-13 42-26 75-37 66-22 158-36 260-36 102 0 194 14 260 36 33 11 58 24 75 37 17 14 23 26 23 36 0 10-6 22-23 35-17 14-42 26-75 37-66 22-158 36-260 36-102 0-194-14-260-36-33-11-58-23-75-37z m65 69c70 23 165 37 270 37 105 0 201-14 270-37 35-12 65-26 86-43 21-16 36-37 36-61 0-25-15-46-36-62-21-17-51-31-86-42-69-24-165-38-270-38-105 0-200 14-270 38-35 11-65 25-86 42-21 16-36 37-36 62 0 24 15 45 36 61 21 17 51 31 86 43z m-105-379c9 0 17-8 17-17 0-10 6-22 23-36 16-13 42-26 75-37 65-21 157-35 260-35 103 0 195 14 260 35 33 11 59 24 75 37 17 14 23 26 23 36 0 9 8 17 17 17 9 0 17-8 17-17 0-24-15-45-36-62-21-16-50-31-85-42-70-24-166-38-271-38-105 0-201 14-271 38-35 11-64 26-85 42-21 17-36 38-36 62 0 9 8 17 17 17z m0 291c9 0 17-7 17-16v-584c0-10 6-22 23-35 16-14 42-26 75-37 65-22 157-36 260-36 103 0 195 14 260 36 33 11 59 23 75 37 17 13 23 25 23 35v584c0 9 8 16 17 16 9 0 17-7 17-16v-584c0-24-15-45-36-61-21-17-50-31-85-43-70-23-166-37-271-37-105 0-201 14-271 37-35 12-64 26-85 43-21 16-36 37-36 61v584c0 9 8 16 17 16z" horiz-adv-x="1000" />

<glyph glyph-name="message-circle" unicode="&#xe827;" d="M377 695c5-8 1-18-7-22-56-28-103-71-136-125-33-53-51-114-51-177l0 0c0-53 12-104 36-151 2-4 2-9 1-13l-69-206 206 69c9 3 18-2 21-11 3-8-1-18-10-21l-238-79c-6-2-12 0-17 4-4 5-6 11-4 17l77 231c-24 50-36 105-36 160 0 0 0 0 0 0l17 0-17 0c0 0 0 0 0 0 0 69 19 136 55 195 37 58 89 106 150 136 8 5 18 1 22-7z m156 5c-55 0-118-5-163-27-8-4-18-1-22 7-4 8-1 18 7 22 53 27 123 32 178 31 1 0 1 0 1 0 90-5 185-34 250-99 64-65 103-150 108-241 0-1 0-1 0-1v-21c0-58-14-115-40-166-30-62-78-113-136-150-59-36-126-55-195-55-58 0-115 13-166 39-8 4-11 15-7 23 4 8 14 11 22 7 47-24 98-36 151-36l0 0c63 0 124 18 177 51 54 33 97 80 125 136l0 0c23 47 36 98 35 151l0 0v20c-4 83-39 161-98 219-57 58-143 85-227 90z m-12-700c0 0 0 0 0 0l0 17 0-17c0 0 0 0 0 0z" horiz-adv-x="1000" />

<glyph glyph-name="copy" unicode="&#xe828;" d="M458 458c-36 0-66-29-66-66v-375c0-37 30-67 66-67h375c37 0 67 30 67 67v375c0 37-30 66-67 66h-375z m-100-66c0 55 45 100 100 100h375c56 0 100-45 100-100v-375c0-56-44-100-100-100h-375c-55 0-100 44-100 100v375z m-191 358c-18 0-35-7-47-19-13-13-20-30-20-48v-375c0-17 7-34 20-47 12-12 29-19 47-19h41c10 0 17-8 17-17 0-9-7-17-17-17h-41c-27 0-52 11-71 30-19 18-29 44-29 70v375c0 27 10 52 29 71 19 19 44 29 71 29h375c26 0 52-10 70-29 19-19 30-44 30-71v-41c0-9-8-17-17-17-9 0-17 8-17 17v41c0 18-7 35-19 48-13 12-30 19-47 19h-375z" horiz-adv-x="1000" />

<glyph glyph-name="file-plus" unicode="&#xe829;" d="M179 754c19 19 45 29 71 29h333c5 0 9-1 12-5l250-250c3-3 5-7 5-11v-500c0-27-10-52-29-71-19-19-44-29-71-29h-500c-26 0-52 10-71 29-18 19-29 44-29 71v666c0 27 11 52 29 71z m71-4c-18 0-35-7-47-19-13-13-20-30-20-48v-666c0-18 7-35 20-48 12-12 29-19 47-19h500c18 0 35 7 47 19 13 13 20 30 20 48v493l-241 240h-326z m333 33c10 0 17-7 17-16v-234h233c10 0 17-7 17-16 0-9-7-17-17-17h-250c-9 0-16 8-16 17v250c0 9 7 16 16 16z m-83-416c9 0 17-8 17-17v-250c0-9-8-17-17-17-9 0-17 8-17 17v250c0 9 8 17 17 17z m-142-142c0 9 8 17 17 17h250c9 0 17-8 17-17 0-9-8-17-17-17h-250c-9 0-17 8-17 17z" horiz-adv-x="1000" />

<glyph glyph-name="briefcase" unicode="&#xe82a;" d="M167 542c-37 0-67-30-67-67v-417c0-36 30-66 67-66h666c37 0 67 30 67 66v417c0 37-30 67-67 67h-666z m-100-67c0 55 44 100 100 100h666c56 0 100-45 100-100v-417c0-55-44-100-100-100h-666c-56 0-100 45-100 100v417z m279 237c19 19 44 30 71 30h166c27 0 52-11 71-30 19-18 29-44 29-70v-667c0-9-7-17-16-17-9 0-17 8-17 17v667c0 17-7 34-19 47-13 12-30 19-48 19h-166c-18 0-35-7-47-19-13-13-20-30-20-47v-667c0-9-7-17-17-17-9 0-16 8-16 17v667c0 26 10 52 29 70z" horiz-adv-x="1000" />

<glyph glyph-name="tag" unicode="&#xe82b;" d="M67 767c0 9 7 16 16 16h417c4 0 9-1 12-5l358-357c18-19 29-45 29-71 0-26-11-52-29-70l0 0-299-299c0 0 0 0 0 0-9-10-20-17-32-22-13-5-26-8-39-8-13 0-26 3-38 8-12 5-23 12-32 22 0 0 0 0 0 0l-358 357c-4 3-5 8-5 12v417z m33-17v-393l353-353c6-6 14-11 22-14 8-4 16-5 25-5 9 0 18 1 26 5 8 3 15 8 21 14l299 299c0 0 0 0 0 0 13 13 20 29 20 47 0 18-7 35-20 47 0 0 0 0 0 0l-353 353h-393z m175-192c0 10 8 17 17 17h0c9 0 17-7 17-17 0-9-8-16-17-16h0c-9 0-17 7-17 16z" horiz-adv-x="1000" />

<glyph glyph-name="life-buoy" unicode="&#xe82c;" d="M500 750c-221 0-400-179-400-400 0-221 179-400 400-400 221 0 400 179 400 400 0 221-179 400-400 400z m-433-400c0 239 194 433 433 433 239 0 433-194 433-433 0-239-194-433-433-433-239 0-433 194-433 433z m433 150c-83 0-150-67-150-150 0-83 67-150 150-150 83 0 150 67 150 150 0 83-67 150-150 150z m-183-150c0 101 82 183 183 183 101 0 183-82 183-183 0-101-82-183-183-183-101 0-183 82-183 183z m-123 306c6 7 17 7 23 0l177-176c6-7 6-17 0-24-7-6-17-6-24 0l-176 177c-7 6-7 17 0 23z m412-412c7 6 17 6 24 0l176-177c7-6 7-17 0-23-6-7-17-7-23 0l-177 176c-6 7-6 17 0 24z m200 412c7-6 7-17 0-23l-176-177c-7-6-17-6-24 0-6 7-6 17 0 24l177 176c6 7 17 7 23 0z m-29-29c6-7 6-17 0-24l-147-147c-7-6-17-6-24 0-6 7-6 17 0 24l147 147c7 6 17 6 24 0z m-383-383c6-7 6-17 0-24l-177-176c-6-7-17-7-23 0-7 6-7 17 0 23l176 177c7 6 17 6 24 0z" horiz-adv-x="1000" />

<glyph glyph-name="users" unicode="&#xe82d;" d="M79 188c34 34 81 54 129 54h334c48 0 95-20 129-54 35-34 54-81 54-130v-83c0-9-7-17-17-17-9 0-16 8-16 17v83c0 40-16 78-44 106-28 29-66 44-106 44h-334c-39 0-78-15-106-44-28-28-44-66-44-106v-83c0-9-7-17-16-17-9 0-17 8-17 17v83c0 49 19 96 54 130z m296 520c-83 0-150-67-150-150 0-82 67-150 150-150 83 0 150 68 150 150 0 83-67 150-150 150z m-183-150c0 102 82 184 183 184 101 0 183-82 183-184 0-101-82-183-183-183-101 0-183 82-183 183z m625-334c3 9 12 14 21 12 39-10 74-33 99-65 25-33 38-72 38-113v-83c0-9-7-17-17-17-9 0-16 8-16 17l0 83c0 34-11 66-32 92-20 26-49 45-81 54-9 2-14 11-12 20z m-166 500c2 9 11 14 20 12 39-10 74-33 99-65 25-33 39-72 39-113 0-41-14-80-39-112-25-32-60-55-99-65-9-3-18 3-20 12-3 9 3 18 12 20 32 8 60 27 81 53 20 27 31 59 31 92 0 33-11 66-31 92-21 26-49 45-81 53-9 3-15 12-12 21z" horiz-adv-x="1000" />

<glyph glyph-name="user-check" unicode="&#xe82e;" d="M79 188c34 34 81 54 129 54h292c49 0 95-20 130-54 34-34 53-81 53-130v-83c0-9-7-17-16-17-9 0-17 8-17 17v83c0 40-16 78-44 106-28 29-66 44-106 44h-292c-39 0-78-15-106-44-28-28-44-66-44-106v-83c0-9-7-17-16-17-9 0-17 8-17 17v83c0 49 19 96 54 130z m275 520c-83 0-150-67-150-150 0-82 67-150 150-150 83 0 150 68 150 150 0 83-67 150-150 150z m-183-150c0 102 82 184 183 184 101 0 184-82 184-184 0-101-83-183-184-183-101 0-183 82-183 183z m799-71c7-7 7-17 0-24l-166-166c-7-7-18-7-24 0l-83 83c-7 6-7 17 0 24 6 6 17 6 23 0l72-72 155 155c6 6 17 6 23 0z" horiz-adv-x="1000" />

<glyph glyph-name="zap-tiny" unicode="&#xe82f;" d="M548 782c7-3 11-10 10-17l-39-315h356c7 0 12-4 15-10 3-5 2-12-2-17l-417-500c-5-6-12-8-19-5-7 3-11 10-10 17l39 315h-356c-6 0-12 4-15 10-3 6-2 12 2 17l417 500c5 6 13 8 19 5z m-387-499h339c5 0 9-2 13-5 3-4 4-9 4-13l-35-277 357 429h-339c-5 0-9 2-12 5-4 4-5 9-4 13l34 277-357-429z" horiz-adv-x="1000" />

<glyph glyph-name="shield-tiny" unicode="&#xe830;" d="M494 782c4 2 8 2 12 0l333-125c7-2 11-8 11-15v-292c0-132-88-241-172-315-43-37-85-66-117-86-16-10-29-17-39-23-4-2-8-4-10-6-2 0-3-1-3-1l-1 0 0-1 0 0 0 0c0 0 0 0-8 15-7-15-7-15-7-15l0 0 0 0-1 1-1 0c0 0-1 1-2 1-3 2-7 4-11 6-10 6-23 13-39 23-32 20-74 49-117 86-84 74-172 183-172 315v292c0 7 4 13 11 15l333 125z m6-849l-7-15c4-2 10-2 15 0l-8 15z m0 19c2 1 4 2 6 4 9 4 22 12 37 21 31 20 72 48 113 83 82 73 161 172 161 290v280l-317 119-317-119v-280c0-118 79-217 161-290 41-35 82-63 113-83 15-9 28-17 37-21 2-2 4-3 6-4z" horiz-adv-x="1000" />

<glyph glyph-name="check-tiny" unicode="&#xe831;" d="M845 612c7-7 7-17 0-24l-458-458c-3-3-8-5-12-5-4 0-9 2-12 5l-208 208c-7 7-7 17 0 24 6 6 17 6 24 0l196-197 447 447c6 6 17 6 23 0z" horiz-adv-x="1000" />

<glyph glyph-name="award" unicode="&#xe832;" d="M500 801c-157 0-284-127-284-284 0-157 127-285 284-285 157 0 285 128 285 285 0 157-128 284-285 284z m-299-284c0 165 134 299 299 299 165 0 299-134 299-299 0-165-134-299-299-299-165 0-299 134-299 299z m456-238c4 0 7-2 8-6l50-380c1-3 0-6-3-7-2-2-5-2-7-1l-205 123-205-123c-2-1-5-1-7 1-3 1-4 4-3 7l50 379c1 4 4 7 8 6 4 0 7-4 6-8l-48-365 195 118c3 1 5 1 8 0l195-118-48 366c-1 4 2 7 6 8z" horiz-adv-x="1000" />

<glyph glyph-name="message-square" unicode="&#xe833;" d="M208 708c-17 0-34-7-47-19-12-13-19-30-19-47v-627l138 139c3 3 7 4 12 4h500c17 0 34 7 47 20 12 12 19 29 19 47v417c0 17-7 34-19 47-13 12-30 19-47 19h-584z m-70 4c18 19 44 30 70 30h584c26 0 52-11 70-30 19-18 30-44 30-70v-417c0-26-11-52-30-71-18-18-44-29-70-29h-493l-162-162c-5-5-12-6-18-3-7 2-11 8-11 15v667c0 26 11 52 30 70z" horiz-adv-x="1000" />

<glyph glyph-name="minus" unicode="&#xe834;" d="M175 350c0 18 15 33 33 33h584c18 0 33-15 33-33 0-18-15-33-33-33h-584c-18 0-33 15-33 33z" horiz-adv-x="1000" />

<glyph glyph-name="play" unicode="&#xe835;" d="M202 736c4 2 9 2 13 0l583-375c4-3 6-7 6-11 0-4-2-8-6-10l-583-376c-4-2-9-2-13 0-4 2-6 6-6 11v750c0 5 2 9 6 11z m19-34v-704l548 352-548 352z" horiz-adv-x="1000" />

<glyph glyph-name="file" unicode="&#xe836;" d="M171 762c21 21 50 32 79 32h292c7 0 14-2 19-8l292-291c5-6 8-13 8-20v-458c0-30-12-58-32-79-21-21-49-32-79-32h-500c-29 0-58 11-79 32-20 21-32 49-32 79v666c0 30 12 58 32 79z m79-23c-15 0-29-6-39-16-11-11-17-25-17-40v-666c0-15 6-29 17-40 10-10 24-16 39-16h500c15 0 29 6 39 16 11 11 17 25 17 40v447l-276 275h-280z m292 55c15 0 27-12 27-27v-264h264c16 0 28-13 28-28 0-15-12-28-28-28h-291c-16 0-28 13-28 28v292c0 15 12 27 28 27z" horiz-adv-x="1000" />

<glyph glyph-name="loader" unicode="&#xe837;" d="M500-87c-11 0-20 9-20 20l0 167c0 11 9 20 20 20 11 0 20-9 20-20l0-167c0-11-9-20-20-20z m0 667c-11 0-20 9-20 20l0 167c0 11 9 20 20 20 11 0 20-9 20-20l0-167c0-11-9-20-20-20z m309-539c-8-7-21-7-29 0l-117 118c-8 8-8 21 0 29 7 7 20 7 28 0l118-118c8-8 8-21 0-29z m-471 472c-8-8-21-8-29 0l-118 117c-7 8-7 21 0 29 8 8 21 8 29 0l118-118c7-8 7-21 0-28z m599-163c0-11-9-20-20-20l-167 0c-11 0-20 9-20 20 0 11 9 20 20 20l167 0c11 0 20-9 20-20z m-667 0c0-11-9-20-20-20l-167 0c-11 0-20 9-20 20 0 11 9 20 20 20l167 0c11 0 20-9 20-20z m393 163c-8 7-8 20 0 28l117 118c8 8 21 8 29 0 8-8 8-21 0-29l-118-117c-8-8-21-8-28 0z m-472-472c-7 8-7 21 0 29l118 118c8 7 21 7 29 0 7-8 7-21 0-29l-118-118c-8-7-21-7-29 0z" horiz-adv-x="1000" />

<glyph glyph-name="x-circle" unicode="&#xe838;" d="M500 754c-223 0-404-181-404-404 0-223 181-404 404-404 223 0 404 181 404 404 0 223-181 404-404 404z m-429-404c0 237 192 429 429 429 237 0 429-192 429-429 0-237-192-429-429-429-237 0-429 192-429 429z m563 134c5-5 5-13 0-18l-250-250c-5-5-13-5-18 0-5 5-5 13 0 18l250 250c5 5 13 5 18 0z m-268 0c5 5 13 5 18 0l250-250c5-5 5-13 0-18-5-5-13-5-18 0l-250 250c-5 5-5 13 0 18z" horiz-adv-x="1000" />

<glyph glyph-name="clock" unicode="&#xe839;" d="M500 725c-207 0-375-168-375-375 0-207 168-375 375-375 207 0 375 168 375 375 0 207-168 375-375 375z m-458-375c0 253 205 458 458 458 253 0 458-205 458-458 0-253-205-458-458-458-253 0-458 205-458 458z m458 292c23 0 42-19 42-42v-224l143-72c21-10 29-35 19-56-10-20-35-29-56-19l-167 84c-14 7-23 21-23 37v250c0 23 19 42 42 42z" horiz-adv-x="1000" />

<glyph glyph-name="eye" unicode="&#xe83a;" d="M107 321c-7 11-13 21-18 29 5 8 11 18 18 30 20 29 48 69 85 108 75 80 179 154 308 154 129 0 234-74 308-154 37-39 66-79 85-108 7-12 13-22 18-30-5-8-11-18-18-29-19-30-48-70-85-109-74-80-179-154-308-154-129 0-233 74-308 154-37 39-65 79-85 109z m893 29c0 0-6 22-7 23 0 0-3 7-6 12-5 10-13 23-24 40-21 32-53 76-94 120-81 87-206 180-369 180-162 0-287-93-369-180-41-44-72-88-94-120-10-17-18-30-24-40-2-5-5-9-6-12l-7-23 7-23c1-3 4-7 6-12 6-9 14-23 24-40 22-32 53-76 94-120 82-87 207-180 369-180 163 0 288 93 369 180 41 44 73 88 94 120 11 17 19 31 24 40 3 5 5 9 6 12l7 23z m-500 83c-24 0-46-10-62-27-13-15-21-34-21-56 0-25 11-47 28-63 15-13 34-20 55-20 25 0 47 10 62 27 13 15 21 34 21 56 0 22-8 41-21 56-15 17-37 27-62 27z m-167-83c0 50 22 95 57 125 29 26 68 42 110 42 42 0 81-16 110-42 35-30 57-75 57-125 0-42-16-81-42-110-30-35-75-57-125-57-50 0-94 22-125 57-26 29-42 68-42 110z" horiz-adv-x="1000" />

<glyph glyph-name="link" unicode="&#xe83b;" d="M538 729c46 44 107 69 170 68 63 0 124-26 169-70 45-45 70-106 71-169 0-64-24-125-68-170l-1-1-125-125c-24-24-54-43-86-55-32-12-67-17-102-15-34 3-68 12-98 29-31 17-57 40-78 67-11 15-8 36 7 47 14 11 35 8 46-7 15-20 35-36 57-48 22-12 46-20 71-21 25-2 50 1 74 10 23 9 45 23 62 40l125 125c32 33 49 77 49 123 0 46-19 90-51 122-33 33-77 51-122 52-46 0-90-18-123-49l-72-71c-13-13-34-13-47 0-13 13-13 34 0 47l72 71z m-206-236c33 12 68 17 102 15 35-2 68-12 99-29 30-17 57-40 77-67 11-15 8-36-6-47-15-11-36-8-47 7-15 20-34 36-56 49-22 12-47 19-72 20-25 2-50-1-73-10-24-9-45-23-63-40l-125-125c-32-33-49-77-49-123 1-46 19-90 52-122 32-33 76-51 122-52 46 0 90 18 123 49l71 71c13 13 34 13 47 0 13-13 13-34 0-47l-72-71c-45-44-106-69-170-68-63 0-124 26-169 70-44 45-70 106-70 169-1 64 23 125 67 170l1 1 125 125c0 0 0 0 0 0 24 24 54 43 86 55z" horiz-adv-x="1000" />

<glyph glyph-name="vk" unicode="&#xe83e;" d="M540 46c-304 0-477 228-484 608h152c5-279 117-397 206-421v421h143v-240c88 10 180 120 211 240h143c-11-62-35-122-68-174-34-52-77-96-127-129 56-30 105-73 144-126 40-52 68-113 85-179h-158c-15 57-44 108-85 147-41 38-91 63-145 70v-217h-17z" horiz-adv-x="1000" />

<glyph glyph-name="thumbs-up" unicode="&#xe83f;" d="M428 780c5 12 17 20 30 20 42 0 83-17 112-46 30-30 47-70 47-112v-134h202c17 1 34-3 49-10 15-7 29-17 40-30 11-12 19-28 24-44 5-16 6-33 4-50l-37-237h-67l38 247c1 7 0 15-2 22-2 7-5 13-10 19-5 5-11 9-17 12-7 3-14 5-21 5l-1 0h-236c-18 0-33 15-33 33v167c0 24-10 47-27 65-12 12-27 20-44 24l-154-346v-248h-67v221h-91c-14 0-26-5-36-14-9-10-14-22-14-36v-171h-67v171c0 31 12 61 34 83 22 22 52 34 83 34h103l158 355z m450-781c-4-28-18-53-40-71-21-18-48-28-76-28h-595c-31 0-61 12-83 34-22 22-34 52-34 83v120h67v-120c0-14 5-26 14-36 10-9 22-14 36-14h91v170h67v-170l437 0c12-1 24 4 33 12 9 7 15 18 17 30l20 128h67l-21-138z" horiz-adv-x="1000" />

<glyph glyph-name="thumbs-down" unicode="&#xe840;" d="M862 718c-11 10-26 16-42 15l0 0-78 0v-83-126h-67v126 83l-437 0c-12 1-24-4-33-12-9-7-15-18-17-30l-29-188-68-7 31 205c4 28 18 53 40 71 21 18 48 28 76 28h437 67 77c32 1 63-11 87-31 24-21 39-50 44-81 0-2 0-3 0-5v-170h-67v168c-2 14-10 28-21 37z m-42-376c15-1 30 5 42 15 11 9 19 23 21 37v119h67v-121c0-2 0-3 0-5-5-31-20-60-44-81-24-20-55-31-87-31h-89l-79-178-79-177c-5-12-17-20-30-20-42 0-83 17-112 46-30 30-47 70-47 112v134h-202c-17 0-34 3-49 10-15 7-29 17-40 30-11 13-20 28-24 44-5 16-6 33-4 50l27 170 68 7-29-187c-1-7 0-15 2-22 2-7 5-13 10-18 5-6 11-10 17-13 7-3 14-5 21-5l1 0h236c18 0 33-15 33-33v-167c0-24 10-47 27-65 12-12 27-20 44-24l68 153 68 154 18 39v27 91 91h67v-91-91h78z" horiz-adv-x="1000" />
</font>
</defs>
</svg>
