<svg width="270" height="225" viewBox="0 0 270 225" fill="none" xmlns="http://www.w3.org/2000/svg">
<path d="M247.809 5.0979H270V219.502H247.809V29.6869L192.93 73.1675V48.5785L247.809 5.0979Z" fill="url(#paint0_linear_7420_43151)"/>
<path d="M77.9701 224.1C61.7763 224.1 47.7817 219.702 35.9862 210.906C24.3906 201.91 15.4941 189.116 9.29643 172.523C3.09881 155.731 0 135.64 0 112.25C0 77.0657 6.89735 49.578 20.6921 29.7868C34.4868 9.99568 53.5794 0.100098 77.9701 0.100098C102.361 0.100098 121.453 9.99568 135.248 29.7868C149.043 49.578 155.94 77.0657 155.94 112.25C155.94 135.64 152.841 155.731 146.644 172.523C140.446 189.116 131.55 201.91 119.954 210.906C108.358 219.702 94.3638 224.1 77.9701 224.1ZM77.9701 204.609C95.3634 204.609 108.758 196.612 118.155 180.62C127.751 164.627 132.549 141.837 132.549 112.25C132.549 82.4633 127.751 59.5735 118.155 43.5807C108.758 27.5878 95.3634 19.5914 77.9701 19.5914C60.5767 19.5914 47.0819 27.5878 37.4856 43.5807C28.0892 59.5735 23.391 82.4633 23.391 112.25C23.391 141.837 28.0892 164.627 37.4856 180.62C47.0819 196.612 60.5767 204.609 77.9701 204.609Z" fill="url(#paint1_linear_7420_43151)"/>
<defs>
<linearGradient id="paint0_linear_7420_43151" x1="231.465" y1="5.0979" x2="231.465" y2="219.502" gradientUnits="userSpaceOnUse">
<stop stop-color="#F0F0F1"/>
<stop offset="0.47" stop-color="#F0F0F1" stop-opacity="0.4"/>
<stop offset="1" stop-color="#F0F0F1" stop-opacity="0"/>
</linearGradient>
<linearGradient id="paint1_linear_7420_43151" x1="77.9701" y1="0.100098" x2="77.9701" y2="224.1" gradientUnits="userSpaceOnUse">
<stop stop-color="#F0F0F1"/>
<stop offset="0.47" stop-color="#F0F0F1" stop-opacity="0.4"/>
<stop offset="1" stop-color="#F0F0F1" stop-opacity="0"/>
</linearGradient>
</defs>
</svg>
