<svg width="326" height="225" viewBox="0 0 326 225" fill="none" xmlns="http://www.w3.org/2000/svg">
<path d="M325.048 219.3H184.648V200.1L259.048 129.3C272.648 116.3 283.048 104.6 290.248 94.2C297.448 83.8 301.048 73.1 301.048 62.1C301.048 54.3 299.248 47.2 295.648 40.8C292.048 34.2 286.948 29 280.348 25.2C273.748 21.4 265.948 19.5 256.948 19.5C244.748 19.5 233.748 22.9 223.948 29.7C214.348 36.3 206.048 45.3 199.048 56.7L183.148 42C193.148 28 204.348 17.5 216.748 10.5C229.348 3.5 243.048 0 257.848 0C271.248 0 282.848 2.8 292.648 8.4C302.448 14 310.048 21.6 315.448 31.2C321.048 40.6 323.848 51.2 323.848 63C323.848 72.2 321.848 81 317.848 89.4C314.048 97.6 308.248 106.1 300.448 114.9C292.848 123.7 283.148 133.6 271.348 144.6C264.748 150.8 258.148 157 251.548 163.2C244.948 169.4 238.348 175.6 231.748 181.8C225.348 187.8 218.848 193.9 212.248 200.1H325.048V219.3Z" fill="url(#paint0_linear_7420_43154)"/>
<path d="M78 224.1C61.8 224.1 47.8 219.7 36 210.9C24.4 201.9 15.5 189.1 9.3 172.5C3.1 155.7 0 135.6 0 112.2C0 77 6.9 49.5 20.7 29.7C34.5 9.9 53.6 0 78 0C102.4 0 121.5 9.9 135.3 29.7C149.1 49.5 156 77 156 112.2C156 135.6 152.9 155.7 146.7 172.5C140.5 189.1 131.6 201.9 120 210.9C108.4 219.7 94.4 224.1 78 224.1ZM78 204.6C95.4 204.6 108.8 196.6 118.2 180.6C127.8 164.6 132.6 141.8 132.6 112.2C132.6 82.4 127.8 59.5 118.2 43.5C108.8 27.5 95.4 19.5 78 19.5C60.6 19.5 47.1 27.5 37.5 43.5C28.1 59.5 23.4 82.4 23.4 112.2C23.4 141.8 28.1 164.6 37.5 180.6C47.1 196.6 60.6 204.6 78 204.6Z" fill="url(#paint1_linear_7420_43154)"/>
<defs>
<linearGradient id="paint0_linear_7420_43154" x1="254.098" y1="0" x2="254.098" y2="219.3" gradientUnits="userSpaceOnUse">
<stop stop-color="#F0F0F1"/>
<stop offset="0.47" stop-color="#F0F0F1" stop-opacity="0.7"/>
<stop offset="1" stop-color="#F0F0F1" stop-opacity="0.2"/>
</linearGradient>
<linearGradient id="paint1_linear_7420_43154" x1="78" y1="0" x2="78" y2="224.1" gradientUnits="userSpaceOnUse">
<stop stop-color="#F0F0F1"/>
<stop offset="0.47" stop-color="#F0F0F1" stop-opacity="0.7"/>
<stop offset="1" stop-color="#F0F0F1" stop-opacity="0.2"/>
</linearGradient>
</defs>
</svg>
