<svg width="334" height="225" viewBox="0 0 334 225" fill="none" xmlns="http://www.w3.org/2000/svg">
<path d="M180.75 185.1L196.65 170.4C204.25 180.8 213.25 189.1 223.65 195.3C234.05 201.5 245.85 204.6 259.05 204.6C274.45 204.6 286.75 200.4 295.95 192C305.35 183.6 310.05 173 310.05 160.2C310.05 151.2 307.65 143.5 302.85 137.1C298.25 130.7 291.85 125.8 283.65 122.4C275.65 118.8 266.55 117 256.35 117H235.35V97.5H256.35C265.35 97.5 273.45 95.9 280.65 92.7C287.85 89.5 293.55 85 297.75 79.2C301.95 73.4 304.05 66.6 304.05 58.8C304.05 47.2 299.95 37.8 291.75 30.6C283.55 23.2 272.75 19.5 259.35 19.5C247.35 19.5 236.65 22.6 227.25 28.8C217.85 34.8 209.65 43.1 202.65 53.7L186.75 39C195.95 26.8 206.65 17.3 218.85 10.5C231.05 3.5 244.55 0 259.35 0C272.75 0 284.55 2.6 294.75 7.79999C304.95 12.8 312.95 19.8 318.75 28.8C324.55 37.6 327.45 47.6 327.45 58.8C327.45 68.8 324.35 77.8 318.15 85.8C312.15 93.8 303.65 100.1 292.65 104.7C281.85 109.3 269.25 111.6 254.85 111.6L257.85 100.5C272.85 100.5 286.05 103.1 297.45 108.3C308.85 113.5 317.65 120.6 323.85 129.6C330.25 138.4 333.45 148.6 333.45 160.2C333.45 172.2 330.25 183.1 323.85 192.9C317.65 202.5 308.95 210.1 297.75 215.7C286.75 221.3 273.85 224.1 259.05 224.1C243.05 224.1 228.45 220.7 215.25 213.9C202.05 206.9 190.55 197.3 180.75 185.1Z" fill="url(#paint0_linear_7420_43157)"/>
<path d="M78 224.1C61.8 224.1 47.8 219.7 36 210.9C24.4 201.9 15.5 189.1 9.3 172.5C3.1 155.7 0 135.6 0 112.2C0 77 6.9 49.5 20.7 29.7C34.5 9.9 53.6 0 78 0C102.4 0 121.5 9.9 135.3 29.7C149.1 49.5 156 77 156 112.2C156 135.6 152.9 155.7 146.7 172.5C140.5 189.1 131.6 201.9 120 210.9C108.4 219.7 94.4 224.1 78 224.1ZM78 204.6C95.4 204.6 108.8 196.6 118.2 180.6C127.8 164.6 132.6 141.8 132.6 112.2C132.6 82.4 127.8 59.5 118.2 43.5C108.8 27.5 95.4 19.5 78 19.5C60.6 19.5 47.1 27.5 37.5 43.5C28.1 59.5 23.4 82.4 23.4 112.2C23.4 141.8 28.1 164.6 37.5 180.6C47.1 196.6 60.6 204.6 78 204.6Z" fill="url(#paint1_linear_7420_43157)"/>
<defs>
<linearGradient id="paint0_linear_7420_43157" x1="257.1" y1="0" x2="257.1" y2="224.1" gradientUnits="userSpaceOnUse">
<stop stop-color="#F0F0F1"/>
<stop offset="0.47" stop-color="#F0F0F1" stop-opacity="0.7"/>
<stop offset="1" stop-color="#F0F0F1" stop-opacity="0.2"/>
</linearGradient>
<linearGradient id="paint1_linear_7420_43157" x1="78" y1="0" x2="78" y2="224.1" gradientUnits="userSpaceOnUse">
<stop stop-color="#F0F0F1"/>
<stop offset="0.47" stop-color="#F0F0F1" stop-opacity="0.7"/>
<stop offset="1" stop-color="#F0F0F1" stop-opacity="0.2"/>
</linearGradient>
</defs>
</svg>
