<svg width="1167" height="124" viewBox="0 0 1167 124" fill="none" xmlns="http://www.w3.org/2000/svg">
<path d="M1072.69 120.528V2.63794H1085.38V112.449H1077.96L1152.82 2.63794H1167V120.528H1154.3V11.5415H1160.9L1086.37 120.528H1072.69Z" fill="url(#paint0_linear_7421_43163)"/>
<path d="M947.094 120.528V2.63794H959.79V112.449H952.37L1027.23 2.63794H1041.41V120.528H1028.71V11.5415H1035.31L960.779 120.528H947.094Z" fill="url(#paint1_linear_7421_43163)"/>
<path d="M903.116 120.528V2.63794H915.812V120.528H903.116ZM834.196 120.528H821.5V2.63794H834.196V120.528ZM832.547 64.9629V53.5862H904.765V64.9629H832.547Z" fill="url(#paint2_linear_7421_43163)"/>
<path d="M777.55 87.5516H713.411V76.3397H777.55V87.5516ZM799.974 120.528H786.618L742.925 10.2225H748.531L704.837 120.528H691.977L739.132 2.63794H752.818L799.974 120.528Z" fill="url(#paint3_linear_7421_43163)"/>
<path d="M576.758 120.528V2.63794H670.41V120.528H657.714V5.44092L664.639 14.0147H582.529L589.454 5.44092V120.528H576.758Z" fill="url(#paint4_linear_7421_43163)"/>
<path d="M489.886 110.635H480.323L432.837 11.3766H437.124V120.528H424.758V2.63794H441.411L489.226 102.886H481.312L529.127 2.63794H545.451V120.528H533.085V11.3766H537.372L489.886 110.635Z" fill="url(#paint5_linear_7421_43163)"/>
<path d="M338.929 123.166C330.135 123.166 322.001 121.627 314.526 118.549C307.162 115.472 300.676 111.185 295.07 105.689C289.574 100.083 285.287 93.5425 282.21 86.0679C279.242 78.4833 277.758 70.2942 277.758 61.5006C277.758 52.7069 279.242 44.5728 282.21 37.0982C285.287 29.6236 289.574 23.1383 295.07 17.6423C300.676 12.0363 307.162 7.69444 314.526 4.61667C322.001 1.53889 330.135 0 338.929 0C347.722 0 355.801 1.53889 363.166 4.61667C370.641 7.69444 377.126 12.0363 382.622 17.6423C388.228 23.1383 392.515 29.6236 395.483 37.0982C398.561 44.5728 400.099 52.7069 400.099 61.5006C400.099 70.2942 398.561 78.4833 395.483 86.0679C392.515 93.5425 388.228 100.083 382.622 105.689C377.126 111.185 370.641 115.472 363.166 118.549C355.801 121.627 347.722 123.166 338.929 123.166ZM338.929 111.624C348.382 111.624 356.681 109.481 363.826 105.194C371.08 100.907 376.741 94.9714 380.808 87.3869C384.875 79.8024 386.909 71.1736 386.909 61.5006C386.909 51.8276 384.875 43.2538 380.808 35.7792C376.741 28.1946 371.08 22.2589 363.826 17.972C356.681 13.6851 348.382 11.5417 338.929 11.5417C329.585 11.5417 321.286 13.6851 314.032 17.972C306.777 22.2589 301.116 28.1946 297.049 35.7792C292.982 43.2538 290.948 51.8276 290.948 61.5006C290.948 71.1736 292.982 79.8024 297.049 87.3869C301.116 94.9714 306.777 100.907 314.032 105.194C321.286 109.481 329.585 111.624 338.929 111.624Z" fill="url(#paint6_linear_7421_43163)"/>
<path d="M191.899 120.528H179.203V2.63794H191.899V120.528ZM275.494 120.528H256.038L187.942 59.357H190.25L251.421 2.63794H268.569L203.606 61.5004V57.2135L275.494 120.528Z" fill="url(#paint7_linear_7421_43163)"/>
<path d="M61.1708 123.166C52.3772 123.166 44.2431 121.627 36.7685 118.549C29.4038 115.472 22.9185 111.185 17.3125 105.689C11.8165 100.083 7.52956 93.5425 4.45178 86.0679C1.48393 78.4833 0 70.2942 0 61.5006C0 52.7069 1.48393 44.5728 4.45178 37.0982C7.52956 29.6236 11.8165 23.1383 17.3125 17.6423C22.9185 12.0363 29.4038 7.69444 36.7685 4.61667C44.2431 1.53889 52.3772 0 61.1708 0C69.9645 0 78.0437 1.53889 85.4083 4.61667C92.8829 7.69444 99.3683 12.0363 104.864 17.6423C110.47 23.1383 114.757 29.6236 117.725 37.0982C120.803 44.5728 122.342 52.7069 122.342 61.5006C122.342 70.2942 120.803 78.4833 117.725 86.0679C114.757 93.5425 110.47 100.083 104.864 105.689C99.3683 111.185 92.8829 115.472 85.4083 118.549C78.0437 121.627 69.9645 123.166 61.1708 123.166ZM61.1708 111.624C70.624 111.624 78.923 109.481 86.0679 105.194C93.3226 100.907 98.9835 94.9714 103.051 87.3869C107.118 79.8024 109.151 71.1736 109.151 61.5006C109.151 51.8276 107.118 43.2538 103.051 35.7792C98.9835 28.1946 93.3226 22.2589 86.0679 17.972C78.923 13.6851 70.624 11.5417 61.1708 11.5417C51.8276 11.5417 43.5286 13.6851 36.2738 17.972C29.019 22.2589 23.3581 28.1946 19.2911 35.7792C15.224 43.2538 13.1905 51.8276 13.1905 61.5006C13.1905 71.1736 15.224 79.8024 19.2911 87.3869C23.3581 94.9714 29.019 100.907 36.2738 105.194C43.5286 109.481 51.8276 111.624 61.1708 111.624Z" fill="url(#paint8_linear_7421_43163)"/>
<defs>
<linearGradient id="paint0_linear_7421_43163" x1="1119.84" y1="2.63794" x2="1119.84" y2="120.528" gradientUnits="userSpaceOnUse">
<stop stop-color="#F0F0F1"/>
<stop offset="0.47" stop-color="#F0F0F1" stop-opacity="0.7"/>
<stop offset="1" stop-color="#F0F0F1" stop-opacity="0.2"/>
</linearGradient>
<linearGradient id="paint1_linear_7421_43163" x1="994.25" y1="2.63794" x2="994.25" y2="120.528" gradientUnits="userSpaceOnUse">
<stop stop-color="#F0F0F1"/>
<stop offset="0.47" stop-color="#F0F0F1" stop-opacity="0.7"/>
<stop offset="1" stop-color="#F0F0F1" stop-opacity="0.2"/>
</linearGradient>
<linearGradient id="paint2_linear_7421_43163" x1="868.656" y1="2.63794" x2="868.656" y2="120.528" gradientUnits="userSpaceOnUse">
<stop stop-color="#F0F0F1"/>
<stop offset="0.47" stop-color="#F0F0F1" stop-opacity="0.7"/>
<stop offset="1" stop-color="#F0F0F1" stop-opacity="0.2"/>
</linearGradient>
<linearGradient id="paint3_linear_7421_43163" x1="745.975" y1="2.63794" x2="745.975" y2="120.528" gradientUnits="userSpaceOnUse">
<stop stop-color="#F0F0F1"/>
<stop offset="0.47" stop-color="#F0F0F1" stop-opacity="0.7"/>
<stop offset="1" stop-color="#F0F0F1" stop-opacity="0.2"/>
</linearGradient>
<linearGradient id="paint4_linear_7421_43163" x1="623.584" y1="2.63794" x2="623.584" y2="120.528" gradientUnits="userSpaceOnUse">
<stop stop-color="#F0F0F1"/>
<stop offset="0.47" stop-color="#F0F0F1" stop-opacity="0.7"/>
<stop offset="1" stop-color="#F0F0F1" stop-opacity="0.2"/>
</linearGradient>
<linearGradient id="paint5_linear_7421_43163" x1="485.104" y1="2.63794" x2="485.104" y2="120.528" gradientUnits="userSpaceOnUse">
<stop stop-color="#F0F0F1"/>
<stop offset="0.47" stop-color="#F0F0F1" stop-opacity="0.7"/>
<stop offset="1" stop-color="#F0F0F1" stop-opacity="0.2"/>
</linearGradient>
<linearGradient id="paint6_linear_7421_43163" x1="338.929" y1="0" x2="338.929" y2="123.166" gradientUnits="userSpaceOnUse">
<stop stop-color="#F0F0F1"/>
<stop offset="0.47" stop-color="#F0F0F1" stop-opacity="0.7"/>
<stop offset="1" stop-color="#F0F0F1" stop-opacity="0.2"/>
</linearGradient>
<linearGradient id="paint7_linear_7421_43163" x1="227.348" y1="2.63794" x2="227.348" y2="120.528" gradientUnits="userSpaceOnUse">
<stop stop-color="#F0F0F1"/>
<stop offset="0.47" stop-color="#F0F0F1" stop-opacity="0.7"/>
<stop offset="1" stop-color="#F0F0F1" stop-opacity="0.2"/>
</linearGradient>
<linearGradient id="paint8_linear_7421_43163" x1="61.1708" y1="0" x2="61.1708" y2="123.166" gradientUnits="userSpaceOnUse">
<stop stop-color="#F0F0F1"/>
<stop offset="0.47" stop-color="#F0F0F1" stop-opacity="0.7"/>
<stop offset="1" stop-color="#F0F0F1" stop-opacity="0.2"/>
</linearGradient>
</defs>
</svg>
