<svg width="330" height="365" viewBox="0 0 330 365" fill="none" xmlns="http://www.w3.org/2000/svg">
<g opacity="0.3">
<path fill-rule="evenodd" clip-rule="evenodd" d="M143.697 2.14429C153.423 0.34765 163.465 -0.350685 173.729 0.165853C258.427 4.42854 329.424 90.4005 329.424 188.563C329.424 273.894 275.087 346.134 203.761 359.309L185.783 362.024C257.109 348.848 311.446 276.609 311.446 191.277C311.446 93.1149 240.449 7.14296 155.751 2.88026C145.487 2.36373 135.445 3.06206 125.719 4.8587L143.697 2.14429Z" fill="#5A5B6A"/>
<path fill-rule="evenodd" clip-rule="evenodd" d="M203.705 359.313C193.979 361.109 183.936 361.808 173.673 361.291C88.975 357.028 17.9781 271.295 17.9781 172.894C17.9781 87.5626 72.3151 15.323 143.641 2.14771L125.663 4.86212C54.337 18.0374 0 90.277 0 175.609C0 274.01 70.9969 359.743 155.695 364.005C165.958 364.522 176.001 363.824 185.727 362.027L203.705 359.313Z" fill="#5A5B6A"/>
<path fill-rule="evenodd" clip-rule="evenodd" d="M194.412 327.849C255.014 319.078 300.751 258.7 300.751 187.12C300.751 106.632 243.247 36.1471 173.704 32.6471C166.729 32.2961 159.878 32.6248 153.197 33.5816L135.219 36.296C141.9 35.3392 148.751 35.0105 155.726 35.3615C225.269 38.8615 282.773 109.346 282.773 189.835C282.773 261.414 237.036 321.793 176.434 330.563L194.412 327.849Z" fill="#5A5B6A"/>
<path fill-rule="evenodd" clip-rule="evenodd" d="M153.214 33.5859C93.0829 42.1973 46.6734 101.682 46.6734 174.336C46.6734 254.108 103.139 325.257 173.72 328.81C180.779 329.165 187.696 328.827 194.429 327.853L176.451 330.567C169.718 331.542 162.801 331.879 155.742 331.524C85.1607 327.972 28.6953 256.822 28.6953 177.051C28.6953 104.397 75.1048 44.9117 135.235 36.3003L153.214 33.5859Z" fill="#5A5B6A"/>
<path d="M173.64 361.288C88.9422 357.025 17.9453 271.292 17.9453 172.891C17.9453 75.923 88.1118 -4.13863 173.64 0.165853C258.338 4.42854 329.335 90.4005 329.335 188.563C329.335 285.53 259.169 365.592 173.64 361.288ZM173.64 328.806C244.222 332.358 300.687 266.654 300.687 187.121C300.687 106.633 243.184 36.1477 173.64 32.6477C103.889 29.1373 46.5932 93.6058 46.5932 174.333C46.5932 254.104 103.059 325.254 173.64 328.806Z" fill="white"/>
<path fill-rule="evenodd" clip-rule="evenodd" d="M227.648 221.575L247.992 246.005C235.2 264.363 216.346 274.86 196.158 277.96L178.18 280.675C198.368 277.574 217.222 267.077 230.014 248.719L209.67 224.289L227.648 221.575Z" fill="#5A5B6A"/>
<path fill-rule="evenodd" clip-rule="evenodd" d="M196.175 277.963C190.481 278.837 184.681 279.123 178.88 278.831C130.511 276.397 92.314 230.768 92.314 174.402C92.314 124.38 122.215 86.0353 162.637 79.2261L144.659 81.9405C104.237 88.7497 74.3359 127.094 74.3359 177.116C74.3359 233.482 112.533 279.112 160.902 281.546C166.702 281.838 172.503 281.552 178.197 280.677L196.175 277.963Z" fill="#5A5B6A"/>
<path fill-rule="evenodd" clip-rule="evenodd" d="M162.697 79.2239C168.209 78.2954 173.917 77.9533 179.771 78.2479C205.927 79.5643 231.877 92.8121 248.069 117.988L227.725 139.893L209.747 142.607L230.091 120.703C213.898 95.5266 187.949 82.2787 161.793 80.9623C155.938 80.6677 150.231 81.0098 144.719 81.9383L162.697 79.2239Z" fill="#5A5B6A"/>
<path fill-rule="evenodd" clip-rule="evenodd" d="M227.608 139.896C217.021 121.45 199.376 110.292 180.692 109.352C177.329 109.182 174.074 109.348 170.939 109.82L152.961 112.535C156.096 112.063 159.351 111.897 162.714 112.066C181.397 113.006 199.043 124.164 209.63 142.61L227.608 139.896Z" fill="#5A5B6A"/>
<path fill-rule="evenodd" clip-rule="evenodd" d="M171.042 109.818C142.826 114.067 124.33 143.122 124.33 176.01C124.33 212.552 147.373 246.193 180.795 247.875C184.195 248.089 187.555 247.953 190.84 247.482L172.862 250.196C169.577 250.668 166.217 250.804 162.817 250.59C129.394 248.908 106.352 215.266 106.352 178.724C106.352 145.836 124.848 116.781 153.064 112.533L171.042 109.818Z" fill="#5A5B6A"/>
<path fill-rule="evenodd" clip-rule="evenodd" d="M190.759 247.481C205.722 245.333 219.119 236.227 227.63 221.575L209.652 224.289C201.141 238.941 187.744 248.047 172.781 250.195L190.759 247.481Z" fill="#5A5B6A"/>
<path d="M227.648 221.575L247.992 246.005C231.592 269.541 205.228 280.156 178.863 278.829C130.494 276.395 92.2969 230.765 92.2969 174.4C92.2969 117.557 130.909 75.7927 179.694 78.2479C205.85 79.5643 231.8 92.8121 247.992 117.988L227.648 139.893C217.06 121.447 199.415 110.289 180.732 109.349C147.101 107.656 124.266 139.467 124.266 176.009C124.266 212.551 147.309 246.192 180.732 247.875C199.623 249.064 217.268 239.443 227.648 221.575Z" fill="white"/>
</g>
</svg>
