<svg width="883" height="102" viewBox="0 0 883 102" fill="none" xmlns="http://www.w3.org/2000/svg">
<path d="M156 1.02032H427.534C429.03 0.896858 442 1.02027 442 11.0203C442 13.3907 442 43.8395 442 51" stroke="#D2D2D6"/>
<path d="M288 62L15.5 62C13 62.0001 1 62 1 71.3913C1 73.6174 1 95.2754 1 102" stroke="#D2D2D6"/>
<path d="M438 62H309.5C307 62.0001 295 62 295 71.3913C295 73.6174 295 95.2754 295 102" stroke="#D2D2D6"/>
<path d="M445 62H571.211C573.526 62.0001 588 62.3287 588 71.3913C588 73.6174 588 95.2754 588 102" stroke="#D2D2D6"/>
<path d="M595 62H867.475C868.476 62.0001 882 62 882 71.3913C882 73.6174 882 95.2754 882 102" stroke="#D2D2D6"/>
</svg>
