<svg width="373" height="101" viewBox="0 0 373 101" fill="none" xmlns="http://www.w3.org/2000/svg">
<g filter="url(#filter0_i_5892_36621)">
<path d="M160.929 19.2378H156.237C154.595 19.2378 153.422 20.4402 153.422 22.1235V26.6926C153.422 28.1354 154.595 29.3378 156.237 29.3378H160.929C162.336 29.3378 163.744 28.1354 163.744 26.6926V22.1235C163.509 20.4402 162.336 19.2378 160.929 19.2378Z" fill="#CCFF99"/>
<path d="M66.153 19.2378H61.2266C59.8191 19.2378 58.1769 19.7187 57.2386 20.6807L51.1392 25.9711C49.7317 27.1735 47.6203 27.8949 45.509 27.8949H42.2247C40.1134 27.8949 38.2367 27.1735 36.8291 25.9711L30.7298 20.6807C29.5568 19.7187 28.1493 19.2378 26.7417 19.2378H21.5807C19.9386 19.2378 18.7656 20.4402 18.7656 21.883V25.9711C18.7656 27.414 19.9386 28.6164 21.5807 28.6164H35.8908C37.5329 28.6164 38.7059 29.8187 38.7059 31.2616V79.5973C38.7059 81.0402 39.8788 82.2426 41.521 82.2426H46.2128C47.6203 82.2426 49.0279 81.0402 49.0279 79.5973V30.7807C49.0279 29.3378 50.4354 28.1354 51.843 28.1354H66.153C67.7952 28.1354 68.9681 26.933 68.9681 25.4902V21.883C69.2027 20.4402 67.7952 19.2378 66.153 19.2378Z" fill="#CCFF99"/>
<path d="M137.706 30.2997C136.299 29.0973 135.36 27.1735 135.36 25.4902V21.883C135.36 20.4402 133.953 19.2378 132.545 19.2378H118C116.358 19.2378 115.185 20.4402 115.185 21.883V25.7306C115.185 27.1735 114.012 28.3759 112.37 28.3759H108.382C106.975 28.3759 105.567 27.1735 105.567 25.7306V21.883C105.567 20.4402 104.394 19.2378 102.752 19.2378H87.9728C86.5653 19.2378 85.1577 20.4402 85.1577 21.883V25.4902C85.1577 27.414 84.2194 29.0973 82.8118 30.2997L76.7125 35.5902C75.5395 36.5521 75.0703 37.7544 75.0703 39.1973V79.1163C75.0703 80.5592 76.2433 81.7616 77.8854 81.7616H82.5772C83.9848 81.7616 85.3923 80.5592 85.3923 79.1163V30.7806C85.3923 29.3378 86.7999 28.1354 88.2074 28.1354H102.283C103.69 28.1354 105.098 29.3378 105.098 30.7806V79.1163C105.098 80.5592 106.506 81.7616 107.913 81.7616H112.605C114.012 81.7616 115.42 80.5592 115.42 79.1163V30.7806C115.42 29.3378 116.593 28.1354 118.235 28.1354H132.311C133.718 28.1354 135.126 29.3378 135.126 30.7806V79.1163C135.126 80.5592 136.299 81.7616 137.941 81.7616H142.398C144.04 81.7616 145.213 80.5592 145.213 79.1163V39.1973C145.213 37.7544 144.744 36.5521 143.571 35.5902L137.706 30.2997Z" fill="#CCFF99"/>
</g>
<g filter="url(#filter1_i_5892_36621)">
<path d="M346.722 44.0068L352.587 38.7164C353.525 37.7545 354.229 36.5521 354.229 35.1092V21.883C354.229 20.4402 353.056 19.2378 351.414 19.2378H346.957C345.315 19.2378 344.142 20.4402 344.142 21.883V42.3235C344.142 44.2473 342.265 45.9306 340.154 45.9306H314.583C312.472 45.9306 310.595 44.2473 310.595 42.3235V21.883C310.595 20.4402 309.422 19.2378 308.015 19.2378H303.557C301.915 19.2378 300.742 20.4402 300.742 21.883V35.1092C300.742 36.5521 301.211 37.7545 302.384 38.7164L308.249 44.0068C309.657 45.4497 310.595 47.133 310.595 49.0568V51.9425C310.595 53.8663 309.657 55.5497 308.249 56.9925L302.384 62.283C301.211 63.2449 300.742 64.4473 300.742 65.8902V79.1163C300.742 80.5592 301.915 81.7616 303.557 81.7616H308.015C309.422 81.7616 310.595 80.5592 310.595 79.1163V58.6759C310.595 56.7521 312.472 55.0687 314.583 55.0687H340.154C342.265 55.0687 344.142 56.7521 344.142 58.6759V79.1163C344.142 80.5592 345.315 81.7616 346.957 81.7616H351.414C353.056 81.7616 354.229 80.5592 354.229 79.1163V65.8902C354.229 64.4473 353.76 63.2449 352.587 62.283L346.722 56.9925C345.315 55.5497 344.611 53.8663 344.611 51.9425V49.0568C344.611 47.133 345.315 45.4497 346.722 44.0068Z" fill="#FAFAFA"/>
<path d="M290.422 19.2378H261.332C259.925 19.2378 258.517 19.7187 257.579 20.6807L251.714 25.9711C250.307 27.414 248.195 27.8949 246.319 27.8949H242.565C240.923 27.8949 239.75 29.0973 239.75 30.5402V43.5259C239.75 44.9688 240.923 46.1711 242.565 46.1711H247.022C248.43 46.1711 249.603 44.9688 249.603 43.5259V30.7807C249.603 29.3378 250.776 28.1354 252.418 28.1354H290.656C292.298 28.1354 293.471 26.933 293.471 25.4902V21.883C293.237 20.4402 292.064 19.2378 290.422 19.2378Z" fill="#FAFAFA"/>
<path d="M290.422 72.6238H252.184C250.776 72.6238 249.368 71.4214 249.368 69.9785V57.7142C249.368 56.2714 250.541 55.069 252.184 55.069H285.495C287.138 55.069 288.311 53.8666 288.311 52.4238V48.3357C288.311 46.8928 287.138 45.6904 285.495 45.6904H261.098C259.69 45.6904 258.283 46.1714 257.345 47.1333L251.48 52.4238C250.072 53.8666 247.961 54.588 246.084 54.588H242.331C240.689 54.588 239.516 55.7904 239.516 57.2333V70.219C239.516 71.6619 240.689 72.8642 242.331 72.8642H246.084C248.196 72.8642 250.072 73.5857 251.48 74.788L257.345 80.0785C258.283 81.0404 259.69 81.5214 261.098 81.5214H290.187C291.829 81.5214 293.002 80.319 293.002 78.8761V74.788C293.237 73.8261 292.064 72.6238 290.422 72.6238Z" fill="#FAFAFA"/>
<path d="M226.614 28.1352H222.86C220.749 28.1352 218.872 27.4137 217.464 26.2114L211.6 20.9209C210.661 19.959 209.254 19.478 207.846 19.478H183.683C182.276 19.478 180.868 20.6804 180.868 22.1233V25.9709C180.868 27.4137 179.695 28.6161 178.288 28.6161H174.065C172.423 28.6161 171.25 29.8185 171.25 31.2614V79.8376C171.25 81.2804 172.423 82.4828 174.065 82.4828H207.846C209.254 82.4828 210.661 82.0018 211.6 81.0399L217.464 75.7495C218.872 74.3066 220.983 73.8256 222.86 73.8256H226.614C228.021 73.8256 229.429 72.6233 229.429 71.1804V30.5399C229.429 29.3376 228.256 28.1352 226.614 28.1352ZM219.341 70.2185C219.341 71.6614 218.168 72.8637 216.526 72.8637H181.103V30.7804C181.103 29.3376 182.276 28.1352 183.918 28.1352H216.761C218.403 28.1352 219.576 29.3376 219.576 30.7804V70.2185H219.341Z" fill="#FAFAFA"/>
</g>
<defs>
<filter id="filter0_i_5892_36621" x="18.7656" y="19.2378" width="144.977" height="64.0049" filterUnits="userSpaceOnUse" color-interpolation-filters="sRGB">
<feFlood flood-opacity="0" result="BackgroundImageFix"/>
<feBlend mode="normal" in="SourceGraphic" in2="BackgroundImageFix" result="shape"/>
<feColorMatrix in="SourceAlpha" type="matrix" values="0 0 0 0 0 0 0 0 0 0 0 0 0 0 0 0 0 0 127 0" result="hardAlpha"/>
<feOffset dy="1"/>
<feGaussianBlur stdDeviation="1"/>
<feComposite in2="hardAlpha" operator="arithmetic" k2="-1" k3="1"/>
<feColorMatrix type="matrix" values="0 0 0 0 0 0 0 0 0 0 0 0 0 0 0 0 0 0 0.25 0"/>
<feBlend mode="normal" in2="shape" result="effect1_innerShadow_5892_36621"/>
</filter>
<filter id="filter1_i_5892_36621" x="171.25" y="19.2378" width="182.977" height="64.2451" filterUnits="userSpaceOnUse" color-interpolation-filters="sRGB">
<feFlood flood-opacity="0" result="BackgroundImageFix"/>
<feBlend mode="normal" in="SourceGraphic" in2="BackgroundImageFix" result="shape"/>
<feColorMatrix in="SourceAlpha" type="matrix" values="0 0 0 0 0 0 0 0 0 0 0 0 0 0 0 0 0 0 127 0" result="hardAlpha"/>
<feOffset dy="1"/>
<feGaussianBlur stdDeviation="1"/>
<feComposite in2="hardAlpha" operator="arithmetic" k2="-1" k3="1"/>
<feColorMatrix type="matrix" values="0 0 0 0 0 0 0 0 0 0 0 0 0 0 0 0 0 0 0.25 0"/>
<feBlend mode="normal" in2="shape" result="effect1_innerShadow_5892_36621"/>
</filter>
</defs>
</svg>
