<svg width="120" height="32" viewBox="0 0 120 32" fill="none" xmlns="http://www.w3.org/2000/svg">
<g clip-path="url(#clip0_3853_7173)">
<path d="M51.7735 6.09521H50.2641C49.7358 6.09521 49.3584 6.47617 49.3584 7.0095V8.45712C49.3584 8.91426 49.7358 9.29521 50.2641 9.29521H51.7735C52.2263 9.29521 52.6792 8.91426 52.6792 8.45712V7.0095C52.6037 6.47617 52.2263 6.09521 51.7735 6.09521Z" fill="#19191D"/>
<path d="M21.2834 6.09521H19.6985C19.2456 6.09521 18.7173 6.2476 18.4154 6.55236L16.4532 8.22855C16.0003 8.6095 15.3211 8.83807 14.6419 8.83807H13.5853C12.906 8.83807 12.3022 8.6095 11.8494 8.22855L9.88714 6.55236C9.50978 6.2476 9.05695 6.09521 8.60412 6.09521H6.94375C6.41544 6.09521 6.03809 6.47617 6.03809 6.93331V8.22855C6.03809 8.68569 6.41544 9.06664 6.94375 9.06664H11.5475C12.0758 9.06664 12.4532 9.4476 12.4532 9.90474V25.219C12.4532 25.6762 12.8305 26.0571 13.3588 26.0571H14.8683C15.3211 26.0571 15.7739 25.6762 15.7739 25.219V9.75236C15.7739 9.29522 16.2268 8.91426 16.6796 8.91426H21.2834C21.8117 8.91426 22.189 8.53331 22.189 8.07617V6.93331C22.2645 6.47617 21.8117 6.09521 21.2834 6.09521Z" fill="#19191D"/>
<path d="M44.3023 9.59998C43.8495 9.21902 43.5476 8.6095 43.5476 8.07617V6.93331C43.5476 6.47617 43.0948 6.09521 42.6419 6.09521H37.9627C37.4344 6.09521 37.057 6.47617 37.057 6.93331V8.15236C37.057 8.6095 36.6797 8.99045 36.1514 8.99045H34.8683C34.4155 8.99045 33.9627 8.6095 33.9627 8.15236V6.93331C33.9627 6.47617 33.5853 6.09521 33.057 6.09521H28.3023C27.8495 6.09521 27.3966 6.47617 27.3966 6.93331V8.07617C27.3966 8.68569 27.0948 9.21902 26.6419 9.59998L24.6797 11.2762C24.3023 11.5809 24.1514 11.9619 24.1514 12.419V25.0666C24.1514 25.5238 24.5287 25.9047 25.057 25.9047H26.5665C27.0193 25.9047 27.4721 25.5238 27.4721 25.0666V9.75236C27.4721 9.29521 27.925 8.91426 28.3778 8.91426H32.9061C33.3589 8.91426 33.8117 9.29521 33.8117 9.75236V25.0666C33.8117 25.5238 34.2646 25.9047 34.7174 25.9047H36.2268C36.6797 25.9047 37.1325 25.5238 37.1325 25.0666V9.75236C37.1325 9.29521 37.5099 8.91426 38.0382 8.91426H42.5665C43.0193 8.91426 43.4721 9.29521 43.4721 9.75236V25.0666C43.4721 25.5238 43.8495 25.9047 44.3778 25.9047H45.8117C46.34 25.9047 46.7174 25.5238 46.7174 25.0666V12.419C46.7174 11.9619 46.5665 11.5809 46.1891 11.2762L44.3023 9.59998Z" fill="#19191D"/>
<path d="M111.547 13.9428L113.434 12.2666C113.736 11.9619 113.962 11.5809 113.962 11.1238V6.93331C113.962 6.47617 113.585 6.09521 113.057 6.09521H111.623C111.095 6.09521 110.717 6.47617 110.717 6.93331V13.4095C110.717 14.019 110.113 14.5524 109.434 14.5524H101.208C100.528 14.5524 99.9247 14.019 99.9247 13.4095V6.93331C99.9247 6.47617 99.5473 6.09521 99.0945 6.09521H97.6605C97.1322 6.09521 96.7549 6.47617 96.7549 6.93331V11.1238C96.7549 11.5809 96.9058 11.9619 97.2832 12.2666L99.17 13.9428C99.6228 14.4 99.9247 14.9333 99.9247 15.5428V16.4571C99.9247 17.0666 99.6228 17.6 99.17 18.0571L97.2832 19.7333C96.9058 20.0381 96.7549 20.419 96.7549 20.8762V25.0666C96.7549 25.5238 97.1322 25.9047 97.6605 25.9047H99.0945C99.5473 25.9047 99.9247 25.5238 99.9247 25.0666V18.5904C99.9247 17.9809 100.528 17.4476 101.208 17.4476H109.434C110.113 17.4476 110.717 17.9809 110.717 18.5904V25.0666C110.717 25.5238 111.095 25.9047 111.623 25.9047H113.057C113.585 25.9047 113.962 25.5238 113.962 25.0666V20.8762C113.962 20.419 113.811 20.0381 113.434 19.7333L111.547 18.0571C111.095 17.6 110.868 17.0666 110.868 16.4571V15.5428C110.868 14.9333 111.095 14.4 111.547 13.9428Z" fill="#19191D"/>
<path d="M93.4347 6.09521H84.0762C83.6234 6.09521 83.1706 6.2476 82.8687 6.55236L80.9819 8.22855C80.529 8.68569 79.8498 8.83807 79.246 8.83807H78.0385C77.5102 8.83807 77.1328 9.21902 77.1328 9.67617V13.7905C77.1328 14.2476 77.5102 14.6285 78.0385 14.6285H79.4724C79.9253 14.6285 80.3026 14.2476 80.3026 13.7905V9.75236C80.3026 9.29522 80.68 8.91426 81.2083 8.91426H93.5102C94.0385 8.91426 94.4158 8.53331 94.4158 8.07617V6.93331C94.3404 6.47617 93.963 6.09521 93.4347 6.09521Z" fill="#19191D"/>
<path d="M93.434 23.0095H81.1321C80.6793 23.0095 80.2265 22.6286 80.2265 22.1714V18.2857C80.2265 17.8286 80.6038 17.4476 81.1321 17.4476H91.8491C92.3774 17.4476 92.7548 17.0667 92.7548 16.6095V15.3143C92.7548 14.8571 92.3774 14.4762 91.8491 14.4762H84C83.5472 14.4762 83.0944 14.6286 82.7925 14.9333L80.9057 16.6095C80.4529 17.0667 79.7736 17.2952 79.1699 17.2952H77.9623C77.434 17.2952 77.0566 17.6762 77.0566 18.1333V22.2476C77.0566 22.7048 77.434 23.0857 77.9623 23.0857H79.1699C79.8491 23.0857 80.4529 23.3143 80.9057 23.6952L82.7925 25.3714C83.0944 25.6762 83.5472 25.8286 84 25.8286H93.3585C93.8868 25.8286 94.2642 25.4476 94.2642 24.9905V23.6952C94.3397 23.3905 93.9623 23.0095 93.434 23.0095Z" fill="#19191D"/>
<path d="M72.906 8.91424H71.6985C71.0193 8.91424 70.4155 8.68567 69.9626 8.30472L68.0759 6.62853C67.774 6.32377 67.3211 6.17139 66.8683 6.17139H59.0947C58.6419 6.17139 58.1891 6.55234 58.1891 7.00948V8.22853C58.1891 8.68567 57.8117 9.06662 57.3589 9.06662H56.0004C55.4721 9.06662 55.0947 9.44758 55.0947 9.90472V25.2952C55.0947 25.7523 55.4721 26.1333 56.0004 26.1333H66.8683C67.3211 26.1333 67.774 25.9809 68.0759 25.6761L69.9626 24C70.4155 23.5428 71.0947 23.3904 71.6985 23.3904H72.906C73.3589 23.3904 73.8117 23.0095 73.8117 22.5523V9.67615C73.8117 9.2952 73.4343 8.91424 72.906 8.91424ZM70.5664 22.2476C70.5664 22.7047 70.1891 23.0857 69.6608 23.0857H58.2645V9.75234C58.2645 9.2952 58.6419 8.91424 59.1702 8.91424H69.7362C70.2645 8.91424 70.6419 9.2952 70.6419 9.75234V22.2476H70.5664Z" fill="#19191D"/>
</g>
<defs>
<clipPath id="clip0_3853_7173">
<rect width="120" height="32" fill="white"/>
</clipPath>
</defs>
</svg>
