<svg width="120" height="32" viewBox="0 0 120 32" fill="none" xmlns="http://www.w3.org/2000/svg">
<path fill-rule="evenodd" clip-rule="evenodd" d="M6.35938 6.51939V7.85588C6.35938 8.32922 6.76396 8.75531 7.29303 8.75531H15.3307C15.6108 8.75531 15.7353 9.11584 15.5486 9.2829L13.1522 11.4537C12.9655 11.6207 12.854 11.816 12.854 12.0388V25.4808C12.854 25.9542 13.2593 26.3161 13.7884 26.3161H15.2813C15.8103 26.3161 16.2156 25.9542 16.2156 25.4808V9.46417C16.2156 8.9911 16.6739 8.59762 17.1323 8.59762H21.7921C22.3271 8.59762 22.7088 8.20414 22.7088 7.73108V6.51939C22.7088 6.04605 22.3212 5.68408 21.7921 5.68408H7.29303C6.76396 5.68408 6.35938 6.04605 6.35938 6.51939ZM45.0327 9.33437C44.5743 8.9376 44.2687 8.30277 44.2687 7.74729V6.55698C44.2687 6.08085 43.8103 5.68408 43.352 5.68408H38.6154C38.0806 5.68408 37.6986 6.08085 37.6986 6.55698V7.82664C37.6986 8.30276 37.3166 8.69954 36.7818 8.69954H35.4831C35.0247 8.69954 34.5663 8.30276 34.5663 7.82664V6.55698C34.5663 6.08085 34.1844 5.68408 33.6496 5.68408H28.8366C28.3782 5.68408 27.9198 6.08085 27.9198 6.55698V7.74729C27.9198 8.38212 27.6142 8.9376 27.1559 9.33437L25.1695 11.0802C24.7876 11.3976 24.6348 11.7943 24.6348 12.2705V25.4432C24.6348 25.9194 25.0168 26.3161 25.5515 26.3161H27.0795C27.5378 26.3161 27.9962 25.9194 27.9962 25.4432V9.49308C27.9962 9.01695 28.4546 8.62018 28.913 8.62018H33.4968C33.9552 8.62018 34.4135 9.01695 34.4135 9.49308V25.4432C34.4135 25.9194 34.8719 26.3161 35.3303 26.3161H36.8582C37.3166 26.3161 37.775 25.9194 37.775 25.4432V9.49308C37.775 9.01695 38.157 8.62018 38.6918 8.62018H43.2756C43.7339 8.62018 44.1923 9.01695 44.1923 9.49308V25.4432C44.1923 25.9194 44.5743 26.3161 45.1091 26.3161H46.5606C47.0954 26.3161 47.4774 25.9194 47.4774 25.4432V12.2705C47.4774 11.7943 47.3246 11.3976 46.9426 11.0802L45.0327 9.33437ZM51.1204 5.68408H49.5797C49.0404 5.68408 48.6553 6.07006 48.6553 6.61042V8.07712C48.6553 8.54029 49.0404 8.92626 49.5797 8.92626H51.1204C51.5826 8.92626 52.0448 8.54029 52.0448 8.07712V6.61042C51.9678 6.07006 51.5826 5.68408 51.1204 5.68408Z" fill="#91B56D"/>
<path fill-rule="evenodd" clip-rule="evenodd" d="M71.2264 11.335H72.6379C73.1745 11.335 73.5578 11.7288 73.5578 12.1225V22.615C73.5578 23.0875 73.0979 23.4812 72.6379 23.4812H71.4114C70.7982 23.4812 70.1083 23.6387 69.6483 24.1112L67.7319 25.8436C67.4253 26.1586 66.9653 26.3161 66.5054 26.3161H55.4668C54.9302 26.3161 54.5469 25.9224 54.5469 25.4499V6.55063C54.5469 6.07814 54.9302 5.68408 55.4668 5.68408H66.2718C66.6977 5.68408 67.1457 6.08051 67.1457 6.56831V7.8046C67.1457 8.17909 67.5097 8.51657 68.0196 8.51657C68.1895 8.51657 68.3615 8.51685 68.5315 8.51712C68.8653 8.51766 69.1911 8.51819 69.4771 8.51657C69.9148 8.51902 70.3382 8.84815 70.351 9.32564C70.3553 9.48441 70.3539 9.80634 70.3525 10.1321C70.3517 10.2965 70.351 10.4619 70.351 10.6078C70.351 11.0116 70.7165 11.335 71.2264 11.335ZM69.3417 23.1662C69.8783 23.1662 70.3382 22.7725 70.3382 22.3L70.351 12.1225C70.351 11.8683 70.0628 11.335 69.4771 11.335H68.0196C67.5628 11.335 67.1457 11.0538 67.1457 10.6078V9.32564C67.1457 8.9822 66.696 8.51902 66.2718 8.51902H58.6864C58.1498 8.51902 57.7665 8.91276 57.7665 9.38525V23.1662H69.3417ZM83.2955 5.68408H92.752C93.2859 5.68408 93.6672 6.08239 93.7435 6.56035V7.75527C93.7435 8.23324 93.3621 8.63154 92.8283 8.63154H80.3975C79.8636 8.63154 79.4823 9.02985 79.4823 9.50782V13.7299C79.4823 14.2078 79.101 14.6061 78.6434 14.6061H77.1945C76.6606 14.6061 76.2793 14.2078 76.2793 13.7299V9.42815C76.2793 8.95019 76.6606 8.55188 77.1945 8.55188H78.4147C79.0248 8.55188 79.7111 8.39256 80.1687 7.91459L82.0753 6.16205C82.3803 5.8434 82.8379 5.68408 83.2955 5.68408ZM80.3213 23.3687H92.7521C93.286 23.3687 93.6673 23.767 93.591 24.0856V25.4399C93.591 25.9179 93.2097 26.3162 92.6759 26.3162H83.2193C82.7617 26.3162 82.3041 26.1568 81.9991 25.8382L80.0925 24.0856C79.6349 23.6873 79.0248 23.4484 78.3385 23.4484H77.1183C76.5844 23.4484 76.2031 23.0501 76.2031 22.5721V18.2704C76.2031 17.7924 76.5844 17.3941 77.1183 17.3941H78.3385C78.9486 17.3941 79.6349 17.1551 80.0925 16.6772L81.9991 14.9246C82.3041 14.606 82.7617 14.4467 83.2193 14.4467H91.1506C91.6844 14.4467 92.0658 14.845 92.0658 15.3229V16.6772C92.0658 17.1551 91.6844 17.5534 91.1506 17.5534H80.3213C79.7875 17.5534 79.4062 17.9517 79.4062 18.4297V22.4924C79.4062 22.9704 79.8637 23.3687 80.3213 23.3687ZM96.2529 10.9214C96.2529 11.3976 96.2529 11.7116 96.7868 12.1118C97.1225 12.3401 98.0488 12.9709 99.0165 13.6299L99.1073 13.6917L99.115 13.697L99.1357 13.7111C100.366 14.5488 101.626 15.4073 101.799 15.524C102.112 15.7365 102.103 16.2704 101.799 16.4762C101.494 16.682 97.6847 19.2761 96.7868 19.8885C96.2529 20.342 96.2529 20.6026 96.2529 21.0788V25.4432C96.2529 25.9194 96.6343 26.3161 97.1682 26.3161H98.6173C99.1512 26.3161 99.5326 25.9194 99.5326 25.4432V21.0788V19.8885C99.5326 19.2536 101.124 17.5078 102.658 17.5078H104.948H107.238C108.772 17.5078 110.363 19.2536 110.363 19.8885V21.0788V25.4432C110.363 25.9194 110.744 26.3161 111.278 26.3161H112.728C113.261 26.3161 113.643 25.9194 113.643 25.4432V21.0788C113.643 20.6026 113.643 20.342 113.109 19.8885C112.211 19.2761 108.402 16.682 108.097 16.4762C107.793 16.2704 107.784 15.7365 108.097 15.524C108.271 15.4064 109.549 14.5355 110.788 13.6917L110.931 13.5944C111.88 12.9483 112.779 12.336 113.109 12.1118C113.643 11.7116 113.643 11.3976 113.643 10.9214V6.55698C113.643 6.08085 113.261 5.68408 112.728 5.68408H111.278C110.744 5.68408 110.363 6.08085 110.363 6.55698V10.9214V12.1118C110.363 12.7466 108.772 14.4924 107.238 14.4924H104.948H102.658C101.124 14.4924 99.5326 12.7466 99.5326 12.1118V10.9214V6.55698C99.5326 6.08085 99.1512 5.68408 98.6173 5.68408H97.1682C96.6343 5.68408 96.2529 6.08085 96.2529 6.55698V10.9214Z" fill="#19191D"/>
</svg>
