<svg width="144" height="40" viewBox="0 0 144 40" fill="none" xmlns="http://www.w3.org/2000/svg">
<g clip-path="url(#clip0_5457_12228)">
<path d="M139.079 0H4.92139C2.20338 0 0 2.11686 0 4.72813V35.2719C0 37.8831 2.20338 40 4.92139 40H139.079C141.797 40 144 37.8831 144 35.2719V4.72813C144 2.11686 141.797 0 139.079 0Z" fill="#3A3A44"/>
<path d="M23.1176 7.71436H24.8808C25.4686 7.71436 25.8604 8.19055 25.8604 8.76197V10.381C25.8604 10.9525 25.3706 11.4286 24.8808 11.4286H19.689C19.1012 11.4286 18.7094 11.9048 18.7094 12.4763V31.6191C18.7094 32.1905 18.2196 32.6667 17.7298 32.6667H16.0645C15.4768 32.6667 15.0849 32.1905 15.0849 31.6191V12.2858C15.0849 11.7144 14.5951 11.2382 14.1053 11.2382H8.81553C8.22777 11.2382 7.83594 10.762 7.83594 10.1905V8.76197C7.83594 8.19055 8.32573 7.71436 8.81553 7.71436H10.5788C11.2645 7.71436 11.7543 7.90483 12.1461 8.28578L14.3012 10.381C14.791 10.9525 15.5747 11.1429 16.2604 11.1429H17.5339C18.3176 11.1429 19.0033 10.8572 19.591 10.381L21.7461 8.28578C22.04 7.90483 22.6278 7.71436 23.1176 7.71436Z" fill="#99FF66"/>
<path d="M54.8564 31.4286C54.8564 32.0001 54.3666 32.4763 53.7789 32.4763H52.1136C51.5258 32.4763 51.036 32.0001 51.036 31.4286V12.2858C51.036 11.7144 50.5462 11.2382 49.9585 11.2382H44.8646C44.2768 11.2382 43.787 11.7144 43.787 12.2858V31.4286C43.787 32.0001 43.2972 32.4763 42.7095 32.4763H41.0442C40.4564 32.4763 39.9666 32.0001 39.9666 31.4286V12.2858C39.9666 11.7144 39.4768 11.2382 38.987 11.2382H33.8931C33.3054 11.2382 32.8156 11.7144 32.8156 12.2858V31.4286C32.8156 32.0001 32.3258 32.4763 31.836 32.4763H30.3666C29.7789 32.4763 29.2891 32.0001 29.2891 31.4286V15.6191C29.2891 15.0477 29.485 14.5715 29.8768 14.1905L32.0319 12.0953C32.6197 11.6191 32.9136 10.8572 32.9136 10.1905V8.76197C32.9136 8.19055 33.4033 7.71436 33.8931 7.71436H39.1829C39.7707 7.71436 40.1625 8.19055 40.1625 8.76197V10.2858C40.1625 10.8572 40.6523 11.3334 41.2401 11.3334H42.7095C43.2972 11.3334 43.787 10.8572 43.787 10.2858V8.76197C43.787 8.19055 44.2768 7.71436 44.8646 7.71436H50.1544C50.7421 7.71436 51.2319 8.19055 51.2319 8.76197V10.1905C51.2319 10.9525 51.5258 11.6191 52.0156 12.0953L54.1707 14.1905C54.5625 14.5715 54.8564 15.0477 54.8564 15.6191V31.4286Z" fill="#99FF66"/>
<path d="M59.3652 8.66674V10.2858C59.3652 10.8572 59.855 11.2382 60.3448 11.2382H62.0101C62.5979 11.2382 62.9897 10.762 62.9897 10.2858V8.66674C62.9897 8.09531 62.4999 7.71436 62.0101 7.71436H60.3448C59.7571 7.71436 59.3652 8.19055 59.3652 8.66674Z" fill="#99FF66"/>
<path d="M66.418 31.4286V12.1905C66.418 11.6191 66.9078 11.1429 67.4955 11.1429H69.0629C69.6506 11.1429 70.0425 10.6667 70.0425 10.0953V8.76197C70.0425 8.19055 70.5323 7.71436 71.0221 7.71436H80.0343C80.6221 7.71436 81.1118 7.90483 81.5037 8.28578L83.6588 10.381C84.2465 10.9525 84.9323 11.1429 85.7159 11.1429H87.1853C87.7731 11.1429 88.2629 11.6191 88.2629 12.1905V27.9048C88.2629 28.4763 87.7731 28.9525 87.1853 28.9525H85.7159C84.9323 28.9525 84.2465 29.2382 83.6588 29.7144L81.5037 31.8096C81.1118 32.1905 80.6221 32.381 80.0343 32.381H67.3976C66.9078 32.4763 66.418 32.0001 66.418 31.4286ZM84.4425 27.9048V12.2858C84.4425 11.7144 83.9527 11.2382 83.3649 11.2382H71.12C70.5323 11.2382 70.0425 11.7144 70.0425 12.2858V28.8572H83.267C83.9527 28.8572 84.4425 28.381 84.4425 27.9048Z" fill="#F9F9FA"/>
<path d="M96.6861 10.381L98.8412 8.28578C99.2331 7.90483 99.7228 7.71436 100.311 7.71436H111.184C111.772 7.71436 112.262 8.19055 112.262 8.76197V10.381C112.262 10.9525 111.772 11.4286 111.184 11.4286H96.882C96.2943 11.4286 95.8045 11.9048 95.8045 12.4763V17.5239C95.8045 18.0953 95.3147 18.5715 94.8249 18.5715H93.1596C92.5718 18.5715 92.082 18.0953 92.082 17.5239V12.1905C92.082 11.6191 92.5718 11.1429 93.1596 11.1429H94.629C95.4126 11.2382 96.0984 10.9525 96.6861 10.381ZM109.323 21.9048H96.882C96.2943 21.9048 95.8045 22.381 95.8045 22.9524V27.9048C95.8045 28.4763 96.2943 28.9524 96.882 28.9524H111.184C111.772 28.9524 112.262 29.4286 112.262 29.9048V31.5239C112.262 32.0953 111.772 32.5715 111.184 32.5715H100.311C99.7228 32.5715 99.2331 32.381 98.8412 32.0001L96.6861 29.9048C96.0984 29.3334 95.4126 29.1429 94.629 29.1429H93.1596C92.5718 29.1429 92.082 28.6667 92.082 28.0953V22.9524C92.082 22.381 92.5718 21.9048 93.1596 21.9048H94.629C95.4126 21.9048 96.0984 21.6191 96.6861 21.0477L98.8412 18.9525C99.2331 18.5715 99.7228 18.381 100.311 18.381H109.421C110.009 18.381 110.498 18.8572 110.498 19.4286V21.0477C110.4 21.4286 109.911 21.9048 109.323 21.9048Z" fill="#F9F9FA"/>
<path d="M134.401 22.762H132.931C132.148 22.762 131.462 22.4763 130.874 21.9049L128.719 18.8572C128.327 18.4763 127.837 18.2858 127.25 18.2858C127.25 18.2858 120.98 17.5239 120.294 17.3334C119.707 17.143 119.217 16.8572 119.217 16.2858V8.66676C119.217 8.09533 118.727 7.61914 118.139 7.61914H116.474C115.886 7.61914 115.396 8.09533 115.396 8.66676V16.381C115.396 16.9525 115.886 17.4287 116.474 17.4287H117.943C118.727 17.4287 119.413 17.7144 120.001 18.2858L122.156 21.3334C122.547 21.7144 123.037 21.9049 123.625 21.9049L130.58 22.8572C131.168 22.9525 131.658 23.3334 131.658 23.9049V31.5239C131.658 32.0953 132.148 32.5715 132.735 32.5715H134.401C134.988 32.5715 135.478 32.0953 135.478 31.5239V23.8096C135.478 23.2382 134.988 22.762 134.401 22.762Z" fill="#F9F9FA"/>
<path d="M134.403 7.71436H132.738C132.15 7.71436 131.66 8.19055 131.66 8.76197V17.8096C131.66 18.0953 131.954 18.1905 132.15 18.0001L134.795 15.4286C135.187 15.0477 135.383 14.5715 135.383 14.0001V8.76197C135.481 8.19055 134.991 7.71436 134.403 7.71436Z" fill="#F9F9FA"/>
<path d="M118.629 22.1904L115.984 24.7619C115.592 25.1428 115.396 25.619 115.396 26.1904V31.4285C115.396 32 115.886 32.4762 116.474 32.4762H118.139C118.727 32.4762 119.217 32 119.217 31.4285V22.3809C119.119 22.1904 118.825 22.0952 118.629 22.1904Z" fill="#F9F9FA"/>
</g>
<defs>
<clipPath id="clip0_5457_12228">
<rect width="144" height="40" fill="white"/>
</clipPath>
</defs>
</svg>
