<svg width="144" height="38" viewBox="0 0 144 38" fill="none" xmlns="http://www.w3.org/2000/svg">
<path fill-rule="evenodd" clip-rule="evenodd" d="M7.625 7.74217V9.32925C7.625 9.89134 8.1105 10.3973 8.74539 10.3973H18.3906C18.7268 10.3973 18.8761 10.8255 18.6521 11.0238L15.7764 13.6017C15.5523 13.8 15.4186 14.0319 15.4186 14.2964V30.2589C15.4186 30.821 15.9049 31.2508 16.5398 31.2508H18.3313C18.9662 31.2508 19.4525 30.821 19.4525 30.2589V11.2391C19.4525 10.6773 20.0025 10.2101 20.5525 10.2101H26.1443C26.7863 10.2101 27.2443 9.74281 27.2443 9.18105V7.74217C27.2443 7.18008 26.7792 6.75024 26.1443 6.75024H8.74539C8.1105 6.75024 7.625 7.18008 7.625 7.74217ZM54.033 11.085C53.4829 10.6138 53.1162 9.85993 53.1162 9.2003V7.78681C53.1162 7.22141 52.5662 6.75024 52.0161 6.75024H46.3322C45.6905 6.75024 45.2321 7.22141 45.2321 7.78681V9.29453C45.2321 9.85993 44.7737 10.3311 44.132 10.3311H42.5735C42.0234 10.3311 41.4734 9.85993 41.4734 9.29453V7.78681C41.4734 7.22141 41.015 6.75024 40.3732 6.75024H34.5977C34.0476 6.75024 33.4975 7.22141 33.4975 7.78681V9.2003C33.4975 9.95416 33.1308 10.6138 32.5808 11.085L30.1972 13.1581C29.7388 13.535 29.5555 14.0062 29.5555 14.5716V30.2142C29.5555 30.7796 30.0138 31.2508 30.6556 31.2508H32.4891C33.0392 31.2508 33.5892 30.7796 33.5892 30.2142V11.2734C33.5892 10.708 34.1393 10.2369 34.6893 10.2369H40.1899C40.7399 10.2369 41.29 10.708 41.29 11.2734V30.2142C41.29 30.7796 41.8401 31.2508 42.3901 31.2508H44.2236C44.7737 31.2508 45.3238 30.7796 45.3238 30.2142V11.2734C45.3238 10.708 45.7821 10.2369 46.4239 10.2369H51.9244C52.4745 10.2369 53.0245 10.708 53.0245 11.2734V30.2142C53.0245 30.7796 53.4829 31.2508 54.1247 31.2508H55.8665C56.5082 31.2508 56.9666 30.7796 56.9666 30.2142V14.5716C56.9666 14.0062 56.7833 13.535 56.3249 13.1581L54.033 11.085ZM61.3382 6.75024H59.4894C58.8423 6.75024 58.3801 7.20859 58.3801 7.85027V9.59198C58.3801 10.142 58.8423 10.6003 59.4894 10.6003H61.3382C61.8929 10.6003 62.4475 10.142 62.4475 9.59198V7.85027C62.3551 7.20859 61.8929 6.75024 61.3382 6.75024Z" fill="#CCFF99"/>
<path fill-rule="evenodd" clip-rule="evenodd" d="M85.4686 13.4607H87.1624C87.8063 13.4607 88.2663 13.9283 88.2663 14.3959V26.8557C88.2663 27.4167 87.7143 27.8843 87.1624 27.8843H85.6906C84.9547 27.8843 84.1268 28.0713 83.5749 28.6324L81.2751 30.6897C80.9072 31.0638 80.3553 31.2508 79.8033 31.2508H66.557C65.9131 31.2508 65.4531 30.7832 65.4531 30.2222V7.77927C65.4531 7.21819 65.9131 6.75024 66.557 6.75024H79.523C80.0341 6.75024 80.5717 7.221 80.5717 7.80027V9.26836C80.5717 9.71306 81.0085 10.1138 81.6204 10.1138C81.8243 10.1138 82.0307 10.1142 82.2346 10.1145C82.6352 10.1151 83.0262 10.1158 83.3694 10.1138C83.8946 10.1167 84.4028 10.5076 84.4181 11.0746C84.4232 11.2631 84.4215 11.6454 84.4198 12.0323C84.419 12.2275 84.4181 12.4239 84.4181 12.5971C84.4181 13.0766 84.8567 13.4607 85.4686 13.4607ZM83.2069 27.5103C83.8508 27.5103 84.4028 27.0427 84.4028 26.4816L84.4181 14.3959C84.4181 14.094 84.0722 13.4607 83.3694 13.4607H81.6204C81.0723 13.4607 80.5717 13.1268 80.5717 12.5971V11.0746C80.5717 10.6668 80.0321 10.1167 79.523 10.1167H70.4205C69.7766 10.1167 69.3166 10.5843 69.3166 11.1454V27.5103H83.2069ZM99.9514 6.75024H111.299C111.94 6.75024 112.397 7.22323 112.489 7.79082V9.20978C112.489 9.77737 112.031 10.2504 111.391 10.2504H96.4739C95.8333 10.2504 95.3757 10.7233 95.3757 11.2909V16.3046C95.3757 16.8722 94.9181 17.3452 94.369 17.3452H92.6302C91.9896 17.3452 91.532 16.8722 91.532 16.3046V11.1963C91.532 10.6287 91.9896 10.1558 92.6302 10.1558H94.0945C94.8266 10.1558 95.6502 9.96656 96.1993 9.39898L98.4872 7.31783C98.8533 6.93944 99.4023 6.75024 99.9514 6.75024ZM96.3824 27.7507H111.299C111.94 27.7507 112.398 28.2237 112.306 28.6021V30.2103C112.306 30.7778 111.849 31.2508 111.208 31.2508H99.86C99.3109 31.2508 98.7618 31.0616 98.3958 30.6833L96.1079 28.6021C95.5588 28.1291 94.8267 27.8453 94.0031 27.8453H92.5388C91.8982 27.8453 91.4406 27.3723 91.4406 26.8047V21.6965C91.4406 21.1289 91.8982 20.6559 92.5388 20.6559H94.0031C94.7352 20.6559 95.5588 20.3721 96.1079 19.8045L98.3958 17.7234C98.7618 17.345 99.3109 17.1558 99.86 17.1558H109.378C110.018 17.1558 110.476 17.6288 110.476 18.1964V19.8045C110.476 20.3721 110.018 20.8451 109.378 20.8451H96.3824C95.7418 20.8451 95.2843 21.3181 95.2843 21.8857V26.7102C95.2843 27.2777 95.8334 27.7507 96.3824 27.7507ZM115.5 12.9696C115.5 13.535 115.5 13.908 116.141 14.3831C116.544 14.6543 117.655 15.4033 118.817 16.1859L118.926 16.2593L118.935 16.2655L118.96 16.2823C120.436 17.2771 121.949 18.2966 122.155 18.4351C122.531 18.6874 122.521 19.3216 122.155 19.5659C121.79 19.8103 117.218 22.8907 116.141 23.6179C115.5 24.1565 115.5 24.466 115.5 25.0314V30.2142C115.5 30.7796 115.958 31.2508 116.599 31.2508H118.338C118.978 31.2508 119.436 30.7796 119.436 30.2142V25.0314V23.6179C119.436 22.8641 121.345 20.7909 123.186 20.7909H125.934H128.682C130.524 20.7909 132.433 22.8641 132.433 23.6179V25.0314V30.2142C132.433 30.7796 132.89 31.2508 133.531 31.2508H135.27C135.911 31.2508 136.368 30.7796 136.368 30.2142V25.0314C136.368 24.466 136.368 24.1565 135.728 23.6179C134.65 22.8907 130.079 19.8103 129.714 19.5659C129.348 19.3216 129.337 18.6874 129.714 18.4351C129.922 18.2955 131.456 17.2614 132.943 16.2593L133.115 16.1437C134.253 15.3765 135.332 14.6494 135.728 14.3831C136.368 13.908 136.368 13.535 136.368 12.9696V7.78681C136.368 7.22141 135.911 6.75024 135.27 6.75024H133.531C132.89 6.75024 132.433 7.22141 132.433 7.78681V12.9696V14.3831C132.433 15.137 130.524 17.2101 128.682 17.2101H125.934H123.186C121.345 17.2101 119.436 15.137 119.436 14.3831V12.9696V7.78681C119.436 7.22141 118.978 6.75024 118.338 6.75024H116.599C115.958 6.75024 115.5 7.22141 115.5 7.78681V12.9696Z" fill="#F9F9FA"/>
</svg>
