<svg width="140" height="38" viewBox="0 0 140 38" fill="none" xmlns="http://www.w3.org/2000/svg">
<g clip-path="url(#clip0_5457_8481)">
<path d="M4.40252 0.5H135.597C138.063 0.5 140 2.4381 140 4.90476V33.0952C140 35.5619 138.063 37.5 135.597 37.5H4.40252C1.93711 37.5 0 35.5619 0 33.0952V4.90476C0 2.4381 1.93711 0.5 4.40252 0.5Z" fill="#262626"/>
<path d="M60.4035 7.54785H58.6425C58.0262 7.54785 57.5859 7.98833 57.5859 8.60499V10.2788C57.5859 10.8074 58.0262 11.2479 58.6425 11.2479H60.4035C60.9318 11.2479 61.4602 10.8074 61.4602 10.2788V8.60499C61.3721 7.98833 60.9318 7.54785 60.4035 7.54785Z" fill="#E9FC53"/>
<path d="M24.8311 7.54785H22.982C22.4537 7.54785 21.8374 7.72404 21.4852 8.07642L19.1959 10.0145C18.6676 10.455 17.8751 10.7193 17.0827 10.7193H15.85C15.0575 10.7193 14.3531 10.455 13.8248 10.0145L11.5355 8.07642C11.0952 7.72404 10.5669 7.54785 10.0386 7.54785H8.10153C7.48517 7.54785 7.04492 7.98833 7.04492 8.5169V10.0145C7.04492 10.5431 7.48517 10.9836 8.10153 10.9836H13.4726C14.0889 10.9836 14.5292 11.424 14.5292 11.9526V29.6598C14.5292 30.1883 14.9695 30.6288 15.5858 30.6288H17.3468C17.8751 30.6288 18.4034 30.1883 18.4034 29.6598V11.7764C18.4034 11.2479 18.9317 10.8074 19.46 10.8074H24.8311C25.4474 10.8074 25.8877 10.3669 25.8877 9.83833V8.5169C25.9757 7.98833 25.4474 7.54785 24.8311 7.54785Z" fill="#E9FC53"/>
<path d="M51.6872 11.6002C51.1589 11.1598 50.8067 10.455 50.8067 9.83833V8.5169C50.8067 7.98833 50.2784 7.54785 49.7501 7.54785H44.2909C43.6746 7.54785 43.2343 7.98833 43.2343 8.5169V9.92642C43.2343 10.455 42.7941 10.8955 42.1777 10.8955H40.6809C40.1526 10.8955 39.6243 10.455 39.6243 9.92642V8.5169C39.6243 7.98833 39.184 7.54785 38.5677 7.54785H33.0205C32.4922 7.54785 31.9639 7.98833 31.9639 8.5169V9.83833C31.9639 10.5431 31.6117 11.1598 31.0834 11.6002L28.7941 13.5383C28.3538 13.8907 28.1777 14.3312 28.1777 14.8598V29.4836C28.1777 30.0121 28.618 30.4526 29.2343 30.4526H30.9953C31.5236 30.4526 32.0519 30.0121 32.0519 29.4836V11.7764C32.0519 11.2479 32.5802 10.8074 33.1086 10.8074H38.3916C38.9199 10.8074 39.4482 11.2479 39.4482 11.7764V29.4836C39.4482 30.0121 39.9765 30.4526 40.5048 30.4526H42.2658C42.7941 30.4526 43.3224 30.0121 43.3224 29.4836V11.7764C43.3224 11.2479 43.7626 10.8074 44.379 10.8074H49.662C50.1903 10.8074 50.7186 11.2479 50.7186 11.7764V29.4836C50.7186 30.0121 51.1589 30.4526 51.7752 30.4526H53.4482C54.0645 30.4526 54.5048 30.0121 54.5048 29.4836V14.8598C54.5048 14.3312 54.3287 13.8907 53.8884 13.5383L51.6872 11.6002Z" fill="#E9FC53"/>
<path d="M130.139 16.6217L132.34 14.6836C132.692 14.3312 132.956 13.8907 132.956 13.3621V8.5169C132.956 7.98833 132.516 7.54785 131.9 7.54785H130.227C129.61 7.54785 129.17 7.98833 129.17 8.5169V16.005C129.17 16.7098 128.466 17.3264 127.673 17.3264H118.076C117.283 17.3264 116.579 16.7098 116.579 16.005V8.5169C116.579 7.98833 116.139 7.54785 115.61 7.54785H113.937C113.321 7.54785 112.881 7.98833 112.881 8.5169V13.3621C112.881 13.8907 113.057 14.3312 113.497 14.6836L115.698 16.6217C116.227 17.1502 116.579 17.7669 116.579 18.4717V19.5288C116.579 20.2336 116.227 20.8502 115.698 21.3788L113.497 23.3169C113.057 23.6693 112.881 24.1098 112.881 24.6383V29.4836C112.881 30.0121 113.321 30.4526 113.937 30.4526H115.61C116.139 30.4526 116.579 30.0121 116.579 29.4836V21.9955C116.579 21.2907 117.283 20.674 118.076 20.674H127.673C128.466 20.674 129.17 21.2907 129.17 21.9955V29.4836C129.17 30.0121 129.61 30.4526 130.227 30.4526H131.9C132.516 30.4526 132.956 30.0121 132.956 29.4836V24.6383C132.956 24.1098 132.78 23.6693 132.34 23.3169L130.139 21.3788C129.61 20.8502 129.346 20.2336 129.346 19.5288V18.4717C129.346 17.7669 129.61 17.1502 130.139 16.6217Z" fill="#FAFAFA"/>
<path d="M109.007 7.54785H98.0889C97.5606 7.54785 97.0323 7.72404 96.6801 8.07642L94.4789 10.0145C93.9506 10.5431 93.1581 10.7193 92.4537 10.7193H91.0449C90.4285 10.7193 89.9883 11.1598 89.9883 11.6883V16.4455C89.9883 16.974 90.4285 17.4145 91.0449 17.4145H92.7178C93.2461 17.4145 93.6864 16.974 93.6864 16.4455V11.7764C93.6864 11.2479 94.1266 10.8074 94.743 10.8074H109.095C109.712 10.8074 110.152 10.3669 110.152 9.83833V8.5169C110.064 7.98833 109.624 7.54785 109.007 7.54785Z" fill="#FAFAFA"/>
<path d="M109.007 27.1049H94.6551C94.1268 27.1049 93.5985 26.6645 93.5985 26.1359V21.643C93.5985 21.1145 94.0388 20.674 94.6551 20.674H107.158C107.775 20.674 108.215 20.2335 108.215 19.7049V18.2073C108.215 17.6788 107.775 17.2383 107.158 17.2383H98.001C97.4727 17.2383 96.9444 17.4145 96.5922 17.7669L94.391 19.7049C93.8627 20.2335 93.0702 20.4978 92.3658 20.4978H90.957C90.3406 20.4978 89.9004 20.9383 89.9004 21.4669V26.224C89.9004 26.7526 90.3406 27.193 90.957 27.193H92.3658C93.1583 27.193 93.8627 27.4573 94.391 27.8978L96.5922 29.8359C96.9444 30.1883 97.4727 30.3645 98.001 30.3645H108.919C109.536 30.3645 109.976 29.924 109.976 29.3954V27.8978C110.064 27.5454 109.624 27.1049 109.007 27.1049Z" fill="#FAFAFA"/>
<path d="M85.0572 10.8072H83.6484C82.856 10.8072 82.1516 10.5429 81.6233 10.1024L79.422 8.16431C79.0698 7.81193 78.5415 7.63574 78.0132 7.63574H68.944C68.4157 7.63574 67.8874 8.07622 67.8874 8.60479V10.0143C67.8874 10.5429 67.4472 10.9834 66.9189 10.9834H65.3339C64.7176 10.9834 64.2773 11.4238 64.2773 11.9524V29.7476C64.2773 30.2762 64.7176 30.7167 65.3339 30.7167H78.0132C78.5415 30.7167 79.0698 30.5405 79.422 30.1881L81.6233 28.25C82.1516 27.7215 82.944 27.5453 83.6484 27.5453H85.0572C85.5855 27.5453 86.1138 27.1048 86.1138 26.5762V11.6881C86.1138 11.2476 85.6736 10.8072 85.0572 10.8072ZM82.3277 26.2238C82.3277 26.7524 81.8874 27.1929 81.2711 27.1929H67.9755V11.7762C67.9755 11.2476 68.4157 10.8072 69.0321 10.8072H81.3591C81.9755 10.8072 82.4157 11.2476 82.4157 11.7762V26.2238H82.3277Z" fill="#FAFAFA"/>
</g>
<defs>
<clipPath id="clip0_5457_8481">
<rect width="140" height="37" fill="white" transform="translate(0 0.5)"/>
</clipPath>
</defs>
</svg>
