<svg width="408" height="193" viewBox="0 0 408 193" fill="none" xmlns="http://www.w3.org/2000/svg">
<g filter="url(#filter0_if_6340_67684)">
<path fill-rule="evenodd" clip-rule="evenodd" d="M10.9062 17.4439V28.6213C10.9062 32.58 14.3342 36.1435 18.817 36.1435H86.9193C89.2926 36.1435 90.3473 39.1587 88.7652 40.5559L68.4609 58.7107C66.8787 60.1079 65.9346 61.7408 65.9346 63.6038V176.023C65.9346 179.982 69.3684 183.009 73.8511 183.009H86.5001C90.9828 183.009 94.4165 179.982 94.4165 176.023V42.0718C94.4165 38.1155 98.2999 34.8247 102.183 34.8247H141.666C146.198 34.8247 149.432 31.5339 149.432 27.5775V17.4439C149.432 13.4852 146.149 10.458 141.666 10.458H18.817C14.3342 10.458 10.9062 13.4852 10.9062 17.4439ZM338.579 40.9863C334.696 37.668 332.107 32.3587 332.107 27.7131V17.7583C332.107 13.7763 328.223 10.458 324.339 10.458H284.206C279.675 10.458 276.439 13.7763 276.439 17.7583V28.3768C276.439 32.3587 273.202 35.677 268.671 35.677H257.667C253.783 35.677 249.9 32.3587 249.9 28.3768V17.7583C249.9 13.7763 246.663 10.458 242.132 10.458H201.352C197.468 10.458 193.585 13.7763 193.585 17.7583V27.7131C193.585 33.0224 190.995 37.668 187.112 40.9863L170.282 55.5868C167.045 58.2414 165.751 61.5597 165.751 65.5416V175.709C165.751 179.691 168.987 183.009 173.518 183.009H186.464C190.348 183.009 194.232 179.691 194.232 175.709V42.3136C194.232 38.3317 198.116 35.0134 202 35.0134H240.837C244.721 35.0134 248.605 38.3317 248.605 42.3136V175.709C248.605 179.691 252.489 183.009 256.373 183.009H269.319C273.202 183.009 277.086 179.691 277.086 175.709V42.3136C277.086 38.3317 280.323 35.0134 284.854 35.0134H323.692C327.575 35.0134 331.459 38.3317 331.459 42.3136V175.709C331.459 179.691 334.696 183.009 339.227 183.009H351.525C356.057 183.009 359.293 179.691 359.293 175.709V65.5416C359.293 61.5597 357.998 58.2414 354.762 55.5868L338.579 40.9863ZM390.16 10.458H377.105C372.537 10.458 369.273 13.686 369.273 18.2052V30.4716C369.273 34.3452 372.537 37.5732 377.105 37.5732H390.16C394.076 37.5732 397.992 34.3452 397.992 30.4716V18.2052C397.339 13.686 394.076 10.458 390.16 10.458Z" fill="#CCFF99"/>
</g>
<defs>
<filter id="filter0_if_6340_67684" x="0.90625" y="0.458008" width="407.086" height="192.551" filterUnits="userSpaceOnUse" color-interpolation-filters="sRGB">
<feFlood flood-opacity="0" result="BackgroundImageFix"/>
<feBlend mode="normal" in="SourceGraphic" in2="BackgroundImageFix" result="shape"/>
<feColorMatrix in="SourceAlpha" type="matrix" values="0 0 0 0 0 0 0 0 0 0 0 0 0 0 0 0 0 0 127 0" result="hardAlpha"/>
<feOffset dy="4"/>
<feGaussianBlur stdDeviation="2"/>
<feComposite in2="hardAlpha" operator="arithmetic" k2="-1" k3="1"/>
<feColorMatrix type="matrix" values="0 0 0 0 0 0 0 0 0 0 0 0 0 0 0 0 0 0 0.25 0"/>
<feBlend mode="normal" in2="shape" result="effect1_innerShadow_6340_67684"/>
<feGaussianBlur stdDeviation="5" result="effect2_foregroundBlur_6340_67684"/>
</filter>
</defs>
</svg>
