<svg width="400" height="172" viewBox="0 0 400 172" fill="none" xmlns="http://www.w3.org/2000/svg">
<path d="M392.236 0L379.291 0C374.76 0 371.523 3.26716 371.523 7.84118V20.2564C371.523 24.177 374.76 27.4441 379.291 27.4441H392.236C396.12 27.4441 400.003 24.177 400.003 20.2564V7.84118C399.356 3.26716 396.12 0 392.236 0Z" fill="#CCFF99"/>
<path d="M130.748 0.000976563L117.155 0.000976563C113.272 0.000976563 108.741 1.30784 106.152 3.92157L89.3229 18.2971C85.4393 21.5642 79.6139 23.5245 73.7885 23.5245H64.7268C58.9013 23.5245 53.7232 21.5642 49.8396 18.2971L33.0106 3.92157C29.7743 1.30784 25.8907 0.000976563 22.0071 0.000976563L7.76721 0.000976563C3.23634 0.000976563 0 3.26814 0 7.18873L0 18.2971C0 22.2177 3.23634 25.4848 7.76721 25.4848H47.2505C51.7814 25.4848 55.0177 28.752 55.0177 32.6726V164.012C55.0177 167.933 58.2541 171.2 62.785 171.2H75.7303C79.6139 171.2 83.4975 167.933 83.4975 164.012V31.3657C83.4975 27.4451 87.3811 24.178 91.2647 24.178L130.748 24.178C135.279 24.178 138.515 20.9108 138.515 16.9902V7.18873C139.163 3.26814 135.279 0.000976563 130.748 0.000976563Z" fill="#CCFF99"/>
<path d="M328.125 30.0579C324.242 26.7907 321.652 21.5632 321.652 16.9892V7.18775C321.652 3.26716 317.769 0 313.885 0L273.755 0C269.224 0 265.987 3.26716 265.987 7.18775V17.6427C265.987 21.5632 262.751 24.8304 258.22 24.8304H247.217C243.333 24.8304 239.449 21.5632 239.449 17.6427V7.18775C239.449 3.26716 236.213 0 231.682 0L190.904 0C187.021 0 183.137 3.26716 183.137 7.18775V16.9892C183.137 22.2167 180.548 26.7907 176.665 30.0579L159.836 44.4334C156.599 47.0471 155.305 50.3142 155.305 54.2348V162.704C155.305 166.625 158.541 169.892 163.072 169.892H176.017C179.901 169.892 183.784 166.625 183.784 162.704V31.3647C183.784 27.4441 187.668 24.177 191.552 24.177H230.388C234.271 24.177 238.155 27.4441 238.155 31.3647V162.704C238.155 166.625 242.039 169.892 245.922 169.892H258.867C262.751 169.892 266.635 166.625 266.635 162.704V31.3647C266.635 27.4441 269.871 24.177 274.402 24.177L313.238 24.177C317.122 24.177 321.005 27.4441 321.005 31.3647V162.704C321.005 166.625 324.241 169.892 328.772 169.892H341.07C345.601 169.892 348.838 166.625 348.838 162.704V54.2348C348.838 50.3142 347.543 47.0471 344.307 44.4334L328.125 30.0579Z" fill="#CCFF99"/>
</svg>
